<?xml version="1.0" encoding="UTF-8"?><svg xmlns="http://www.w3.org/2000/svg" xmlns:xlink="http://www.w3.org/1999/xlink" fill-opacity="1" color-rendering="auto" color-interpolation="auto" text-rendering="auto" stroke="black" stroke-linecap="square" width="1185" stroke-miterlimit="10" shape-rendering="auto" stroke-opacity="1" fill="black" stroke-dasharray="none" font-weight="normal" stroke-width="1" height="823" font-family="'Dialog'" font-style="normal" stroke-linejoin="miter" font-size="12" stroke-dashoffset="0" image-rendering="auto">
  <!--Generated by ySVG 2.5-->
  <defs id="genericDefs"/>
  <g>
    <defs id="defs1">
      <clipPath clipPathUnits="userSpaceOnUse" id="clipPath1">
        <path d="M0 0 L1185 0 L1185 823 L0 823 L0 0 Z"/>
      </clipPath>
      <clipPath clipPathUnits="userSpaceOnUse" id="clipPath2">
        <path d="M117 -173 L1302 -173 L1302 650 L117 650 L117 -173 Z"/>
      </clipPath>
      <clipPath clipPathUnits="userSpaceOnUse" id="clipPath3">
        <path d="M113 -177 L1298 -177 L1298 646 L113 646 L113 -177 Z"/>
      </clipPath>
    </defs>
    <g fill="white" text-rendering="geometricPrecision" shape-rendering="geometricPrecision" transform="translate(-117,173)" stroke="white">
      <rect x="117" width="1185" height="823" y="-173" clip-path="url(#clipPath2)" stroke="none"/>
    </g>
    <g fill="rgb(210,210,210)" text-rendering="geometricPrecision" shape-rendering="geometricPrecision" transform="matrix(1,0,0,1,-117,173) translate(4,4)" stroke="rgb(210,210,210)">
      <rect x="132" width="726.25" height="334.5195" y="-157.2695" clip-path="url(#clipPath3)" stroke="none"/>
    </g>
    <g fill="rgb(188,170,255)" text-rendering="geometricPrecision" shape-rendering="geometricPrecision" transform="matrix(1,0,0,1,-117,173)" stroke="rgb(188,170,255)">
      <rect x="132" width="726.25" height="21.4609" y="-157.2695" clip-path="url(#clipPath2)" stroke="none"/>
    </g>
    <g font-size="15" stroke-linecap="butt" transform="matrix(1,0,0,1,-117,173)" text-rendering="geometricPrecision" font-family="sans-serif" shape-rendering="geometricPrecision" stroke-miterlimit="1.45">
      <text x="766.3452" xml:space="preserve" y="-141.3462" clip-path="url(#clipPath2)" stroke="none">ClinicalData</text>
      <rect fill="none" x="132" width="726.25" height="334.5195" y="-157.2695" clip-path="url(#clipPath2)"/>
    </g>
    <g fill="rgb(210,210,210)" text-rendering="geometricPrecision" shape-rendering="geometricPrecision" transform="matrix(1,0,0,1,-117,173) translate(4,4)" stroke="rgb(210,210,210)">
      <rect x="267" width="132" height="191.0234" y="-87.2383" clip-path="url(#clipPath3)" stroke="none"/>
    </g>
    <g fill="silver" text-rendering="geometricPrecision" shape-rendering="geometricPrecision" transform="matrix(1,0,0,1,-117,173)" stroke="silver">
      <rect x="267" width="132" height="21.4609" y="-87.2383" clip-path="url(#clipPath2)" stroke="none"/>
    </g>
    <g font-size="15" stroke-linecap="butt" transform="matrix(1,0,0,1,-117,173)" text-rendering="geometricPrecision" font-family="sans-serif" shape-rendering="geometricPrecision" stroke-miterlimit="1.45">
      <text x="318.8286" xml:space="preserve" y="-71.3149" clip-path="url(#clipPath2)" stroke="none">ImportInfo</text>
      <rect fill="none" x="267" width="132" height="191.0234" y="-87.2383" clip-path="url(#clipPath2)"/>
    </g>
    <g fill="rgb(188,170,255)" text-rendering="geometricPrecision" shape-rendering="geometricPrecision" transform="matrix(1,0,0,1,-117,173)" stroke="rgb(188,170,255)">
      <rect x="282" width="102" height="38" y="-11.7148" clip-path="url(#clipPath2)" stroke="none"/>
    </g>
    <g text-rendering="geometricPrecision" stroke-miterlimit="1.45" shape-rendering="geometricPrecision" font-family="sans-serif" transform="matrix(1,0,0,1,-117,173)" stroke-linecap="butt">
      <text x="294.5771" xml:space="preserve" y="11.4395" clip-path="url(#clipPath2)" stroke="none">Clinical1.xml</text>
      <rect fill="none" x="282" width="102" height="38" y="-11.7148" clip-path="url(#clipPath2)"/>
    </g>
    <g fill="rgb(210,210,210)" text-rendering="geometricPrecision" shape-rendering="geometricPrecision" transform="matrix(1,0,0,1,-117,173) translate(4,4)" stroke="rgb(210,210,210)">
      <rect x="451" width="385.25" height="229.7695" y="-86.2695" clip-path="url(#clipPath3)" stroke="none"/>
    </g>
    <g fill="silver" text-rendering="geometricPrecision" shape-rendering="geometricPrecision" transform="matrix(1,0,0,1,-117,173)" stroke="silver">
      <rect x="451" width="385.25" height="21.4609" y="-86.2695" clip-path="url(#clipPath2)" stroke="none"/>
    </g>
    <g font-size="15" stroke-linecap="butt" transform="matrix(1,0,0,1,-117,173)" text-rendering="geometricPrecision" font-family="sans-serif" shape-rendering="geometricPrecision" stroke-miterlimit="1.45">
      <text x="744.3452" xml:space="preserve" y="-70.3462" clip-path="url(#clipPath2)" stroke="none">ClinicalData</text>
      <rect fill="none" x="451" width="385.25" height="229.7695" y="-86.2695" clip-path="url(#clipPath2)"/>
    </g>
    <g fill="rgb(188,170,255)" text-rendering="geometricPrecision" shape-rendering="geometricPrecision" transform="matrix(1,0,0,1,-117,173)" stroke="rgb(188,170,255)">
      <rect x="466" width="110" height="30" y="-40.5" clip-path="url(#clipPath2)" stroke="none"/>
    </g>
    <g text-rendering="geometricPrecision" stroke-miterlimit="1.45" shape-rendering="geometricPrecision" font-family="sans-serif" transform="matrix(1,0,0,1,-117,173)" stroke-linecap="butt">
      <text x="480.7168" xml:space="preserve" y="-21.3457" clip-path="url(#clipPath2)" stroke="none">days_to_birth</text>
      <rect fill="none" x="466" width="110" height="30" y="-40.5" clip-path="url(#clipPath2)"/>
    </g>
    <g fill="rgb(188,170,255)" text-rendering="geometricPrecision" shape-rendering="geometricPrecision" transform="matrix(1,0,0,1,-117,173)" stroke="rgb(188,170,255)">
      <rect x="466" width="110" height="30" y="3.5" clip-path="url(#clipPath2)" stroke="none"/>
    </g>
    <g text-rendering="geometricPrecision" stroke-miterlimit="1.45" shape-rendering="geometricPrecision" font-family="sans-serif" transform="matrix(1,0,0,1,-117,173)" stroke-linecap="butt">
      <text x="488.832" xml:space="preserve" y="22.6543" clip-path="url(#clipPath2)" stroke="none">Drug_code</text>
      <rect fill="none" x="466" width="110" height="30" y="3.5" clip-path="url(#clipPath2)"/>
    </g>
    <g fill="rgb(188,170,255)" text-rendering="geometricPrecision" shape-rendering="geometricPrecision" transform="matrix(1,0,0,1,-117,173)" stroke="rgb(188,170,255)">
      <rect x="466" width="110" height="30" y="47.5" clip-path="url(#clipPath2)" stroke="none"/>
    </g>
    <g text-rendering="geometricPrecision" stroke-miterlimit="1.45" shape-rendering="geometricPrecision" font-family="sans-serif" transform="matrix(1,0,0,1,-117,173)" stroke-linecap="butt">
      <text x="488.832" xml:space="preserve" y="66.6543" clip-path="url(#clipPath2)" stroke="none">Drug_code</text>
      <rect fill="none" x="466" width="110" height="30" y="47.5" clip-path="url(#clipPath2)"/>
    </g>
    <g fill="rgb(188,170,255)" text-rendering="geometricPrecision" shape-rendering="geometricPrecision" transform="matrix(1,0,0,1,-117,173)" stroke="rgb(188,170,255)">
      <rect x="576" width="110" height="30" y="-40.5" clip-path="url(#clipPath2)" stroke="none"/>
    </g>
    <g text-rendering="geometricPrecision" stroke-miterlimit="1.45" shape-rendering="geometricPrecision" font-family="sans-serif" transform="matrix(1,0,0,1,-117,173)" stroke-linecap="butt">
      <text x="609.748" xml:space="preserve" y="-21.3457" clip-path="url(#clipPath2)" stroke="none">-12000</text>
      <rect fill="none" x="576" width="110" height="30" y="-40.5" clip-path="url(#clipPath2)"/>
    </g>
    <g fill="rgb(188,170,255)" text-rendering="geometricPrecision" shape-rendering="geometricPrecision" transform="matrix(1,0,0,1,-117,173)" stroke="rgb(188,170,255)">
      <rect x="576" width="110" height="30" y="3.5" clip-path="url(#clipPath2)" stroke="none"/>
    </g>
    <g text-rendering="geometricPrecision" stroke-miterlimit="1.45" shape-rendering="geometricPrecision" font-family="sans-serif" transform="matrix(1,0,0,1,-117,173)" stroke-linecap="butt">
      <text x="586.3018" xml:space="preserve" y="22.6543" clip-path="url(#clipPath2)" stroke="none">3X4MPL3DRU9</text>
      <rect fill="none" x="576" width="110" height="30" y="3.5" clip-path="url(#clipPath2)"/>
    </g>
    <g fill="rgb(188,170,255)" text-rendering="geometricPrecision" shape-rendering="geometricPrecision" transform="matrix(1,0,0,1,-117,173)" stroke="rgb(188,170,255)">
      <rect x="576" width="110" height="30" y="47.5" clip-path="url(#clipPath2)" stroke="none"/>
    </g>
    <g text-rendering="geometricPrecision" stroke-miterlimit="1.45" shape-rendering="geometricPrecision" font-family="sans-serif" transform="matrix(1,0,0,1,-117,173)" stroke-linecap="butt">
      <text x="589.252" xml:space="preserve" y="66.6543" clip-path="url(#clipPath2)" stroke="none">53C0NDDRU9</text>
      <rect fill="none" x="576" width="110" height="30" y="47.5" clip-path="url(#clipPath2)"/>
    </g>
    <g fill="rgb(188,170,255)" text-rendering="geometricPrecision" shape-rendering="geometricPrecision" transform="matrix(1,0,0,1,-117,173)" stroke="rgb(188,170,255)">
      <rect x="686" width="110" height="30" y="-40.5" clip-path="url(#clipPath2)" stroke="none"/>
    </g>
    <g text-rendering="geometricPrecision" stroke-miterlimit="1.45" shape-rendering="geometricPrecision" font-family="sans-serif" transform="matrix(1,0,0,1,-117,173)" stroke-linecap="butt">
      <text x="687.873" xml:space="preserve" y="-21.3457" clip-path="url(#clipPath2)" stroke="none">//tcga_bcr/patient</text>
      <rect fill="none" x="686" width="110" height="30" y="-40.5" clip-path="url(#clipPath2)"/>
    </g>
    <g fill="rgb(188,170,255)" text-rendering="geometricPrecision" shape-rendering="geometricPrecision" transform="matrix(1,0,0,1,-117,173)" stroke="rgb(188,170,255)">
      <rect x="686" width="110" height="30" y="3.5" clip-path="url(#clipPath2)" stroke="none"/>
    </g>
    <g text-rendering="geometricPrecision" stroke-miterlimit="1.45" shape-rendering="geometricPrecision" font-family="sans-serif" transform="matrix(1,0,0,1,-117,173)" stroke-linecap="butt">
      <text x="689.7012" xml:space="preserve" y="22.6543" clip-path="url(#clipPath2)" stroke="none">//../drugs/drug[1]</text>
      <rect fill="none" x="686" width="110" height="30" y="3.5" clip-path="url(#clipPath2)"/>
    </g>
    <g fill="rgb(188,170,255)" text-rendering="geometricPrecision" shape-rendering="geometricPrecision" transform="matrix(1,0,0,1,-117,173)" stroke="rgb(188,170,255)">
      <rect x="686" width="110" height="30" y="47.5" clip-path="url(#clipPath2)" stroke="none"/>
    </g>
    <g text-rendering="geometricPrecision" stroke-miterlimit="1.45" shape-rendering="geometricPrecision" font-family="sans-serif" transform="matrix(1,0,0,1,-117,173)" stroke-linecap="butt">
      <text x="689.7012" xml:space="preserve" y="66.6543" clip-path="url(#clipPath2)" stroke="none">//../drugs/drug[2]</text>
      <rect fill="none" x="686" width="110" height="30" y="47.5" clip-path="url(#clipPath2)"/>
    </g>
    <g fill="rgb(188,170,255)" text-rendering="geometricPrecision" shape-rendering="geometricPrecision" transform="matrix(1,0,0,1,-117,173)" stroke="rgb(188,170,255)">
      <rect x="466" width="110" height="30" y="91.5" clip-path="url(#clipPath2)" stroke="none"/>
    </g>
    <g text-rendering="geometricPrecision" stroke-miterlimit="1.45" shape-rendering="geometricPrecision" font-family="sans-serif" transform="matrix(1,0,0,1,-117,173)" stroke-linecap="butt">
      <text x="515.2783" xml:space="preserve" y="110.6543" clip-path="url(#clipPath2)" stroke="none">...</text>
      <rect fill="none" x="466" width="110" height="30" y="91.5" clip-path="url(#clipPath2)"/>
    </g>
    <g fill="rgb(188,170,255)" text-rendering="geometricPrecision" shape-rendering="geometricPrecision" transform="matrix(1,0,0,1,-117,173)" stroke="rgb(188,170,255)">
      <rect x="576" width="110" height="30" y="91.5" clip-path="url(#clipPath2)" stroke="none"/>
    </g>
    <g text-rendering="geometricPrecision" stroke-miterlimit="1.45" shape-rendering="geometricPrecision" font-family="sans-serif" transform="matrix(1,0,0,1,-117,173)" stroke-linecap="butt">
      <text x="625.2783" xml:space="preserve" y="110.6543" clip-path="url(#clipPath2)" stroke="none">...</text>
      <rect fill="none" x="576" width="110" height="30" y="91.5" clip-path="url(#clipPath2)"/>
    </g>
    <g fill="rgb(188,170,255)" text-rendering="geometricPrecision" shape-rendering="geometricPrecision" transform="matrix(1,0,0,1,-117,173)" stroke="rgb(188,170,255)">
      <rect x="686" width="110" height="30" y="91.5" clip-path="url(#clipPath2)" stroke="none"/>
    </g>
    <g text-rendering="geometricPrecision" stroke-miterlimit="1.45" shape-rendering="geometricPrecision" font-family="sans-serif" transform="matrix(1,0,0,1,-117,173)" stroke-linecap="butt">
      <text x="733.3711" xml:space="preserve" y="110.6543" clip-path="url(#clipPath2)" stroke="none">....</text>
      <rect fill="none" x="686" width="110" height="30" y="91.5" clip-path="url(#clipPath2)"/>
      <path fill="none" d="M384 -1.6087 L458.1189 -14.5342" clip-path="url(#clipPath2)"/>
      <path d="M466 -15.9086 L453.3194 -18.7727 L457.1338 -14.3624 L455.0374 -8.9214 Z" clip-path="url(#clipPath2)" stroke="none"/>
      <path fill="none" d="M384 10.3275 L458.0142 14.7427" clip-path="url(#clipPath2)"/>
      <path d="M466 15.2191 L454.319 9.5134 L457.016 14.6831 L453.7236 19.4956 Z" clip-path="url(#clipPath2)" stroke="none"/>
      <path fill="none" d="M384 22.2637 L462.251 45.2456" clip-path="url(#clipPath2)"/>
      <path d="M469.9268 47.5 L459.8221 39.3211 L461.2915 44.9639 L457.0041 48.9158 Z" clip-path="url(#clipPath2)" stroke="none"/>
    </g>
    <g fill="rgb(210,210,210)" text-rendering="geometricPrecision" shape-rendering="geometricPrecision" transform="matrix(1,0,0,1,-117,173) translate(4,4)" stroke="rgb(210,210,210)">
      <rect x="883.0219" width="283.175" height="401.9219" y="229.0781" clip-path="url(#clipPath3)" stroke="none"/>
    </g>
    <g fill="rgb(242,240,216)" text-rendering="geometricPrecision" shape-rendering="geometricPrecision" transform="matrix(1,0,0,1,-117,173)" stroke="rgb(242,240,216)">
      <rect x="883.0219" width="283.175" height="401.9219" y="229.0781" clip-path="url(#clipPath2)" stroke="none"/>
      <rect x="883.0219" y="229.0781" clip-path="url(#clipPath2)" fill="rgb(192,218,179)" width="283.175" height="21.4609" stroke="none"/>
    </g>
    <g font-size="15" stroke-linecap="butt" transform="matrix(1,0,0,1,-117,173)" text-rendering="geometricPrecision" font-family="sans-serif" shape-rendering="geometricPrecision" stroke-miterlimit="1.45">
      <text x="1070.4982" xml:space="preserve" y="245.0015" clip-path="url(#clipPath2)" stroke="none">GeneticData</text>
      <rect fill="none" x="883.0219" width="283.175" height="401.9219" y="229.0781" clip-path="url(#clipPath2)"/>
    </g>
    <g fill="rgb(210,210,210)" text-rendering="geometricPrecision" shape-rendering="geometricPrecision" transform="matrix(1,0,0,1,-117,173) translate(4,4)" stroke="rgb(210,210,210)">
      <rect x="898.0219" width="244.375" height="136.8838" y="293.9429" clip-path="url(#clipPath3)" stroke="none"/>
    </g>
    <g fill="rgb(222,220,196)" text-rendering="geometricPrecision" shape-rendering="geometricPrecision" transform="matrix(1,0,0,1,-117,173)" stroke="rgb(222,220,196)">
      <rect x="898.0219" width="244.375" height="136.8838" y="293.9429" clip-path="url(#clipPath2)" stroke="none"/>
      <rect x="898.0219" y="293.9429" clip-path="url(#clipPath2)" fill="rgb(183,182,158)" width="244.375" height="21.4609" stroke="none"/>
    </g>
    <g font-size="15" stroke-linecap="butt" transform="matrix(1,0,0,1,-117,173)" text-rendering="geometricPrecision" font-family="sans-serif" shape-rendering="geometricPrecision" stroke-miterlimit="1.45">
      <text x="1072.6844" xml:space="preserve" y="309.8662" clip-path="url(#clipPath2)" stroke="none">Variation</text>
      <rect fill="none" x="898.0219" width="244.375" height="136.8838" y="293.9429" clip-path="url(#clipPath2)"/>
    </g>
    <g fill="rgb(192,218,179)" text-rendering="geometricPrecision" shape-rendering="geometricPrecision" transform="matrix(1,0,0,1,-117,173)" stroke="rgb(192,218,179)">
      <rect x="913.0219" width="214.375" height="30" y="330.4038" clip-path="url(#clipPath2)" stroke="none"/>
    </g>
    <g text-rendering="geometricPrecision" stroke-miterlimit="1.45" shape-rendering="geometricPrecision" font-family="sans-serif" transform="matrix(1,0,0,1,-117,173)" stroke-linecap="butt">
      <text x="1001.0463" xml:space="preserve" y="349.5581" clip-path="url(#clipPath2)" stroke="none">Read1</text>
      <rect fill="none" x="913.0219" width="214.375" height="30" y="330.4038" clip-path="url(#clipPath2)"/>
    </g>
    <g fill="rgb(192,218,179)" text-rendering="geometricPrecision" shape-rendering="geometricPrecision" transform="matrix(1,0,0,1,-117,173)" stroke="rgb(192,218,179)">
      <rect x="913.0219" width="214.375" height="30" y="355.8267" clip-path="url(#clipPath2)" stroke="none"/>
    </g>
    <g text-rendering="geometricPrecision" stroke-miterlimit="1.45" shape-rendering="geometricPrecision" font-family="sans-serif" transform="matrix(1,0,0,1,-117,173)" stroke-linecap="butt">
      <text x="1001.0463" xml:space="preserve" y="374.981" clip-path="url(#clipPath2)" stroke="none">Read2</text>
      <rect fill="none" x="913.0219" width="214.375" height="30" y="355.8267" clip-path="url(#clipPath2)"/>
    </g>
    <g fill="rgb(192,218,179)" text-rendering="geometricPrecision" shape-rendering="geometricPrecision" transform="matrix(1,0,0,1,-117,173)" stroke="rgb(192,218,179)">
      <rect x="913.0219" width="214.375" height="30" y="385.8267" clip-path="url(#clipPath2)" stroke="none"/>
    </g>
    <g text-rendering="geometricPrecision" stroke-miterlimit="1.45" shape-rendering="geometricPrecision" font-family="sans-serif" transform="matrix(1,0,0,1,-117,173)" stroke-linecap="butt">
      <text x="1010.6732" xml:space="preserve" y="404.981" clip-path="url(#clipPath2)" stroke="none">.....</text>
      <rect fill="none" x="913.0219" width="214.375" height="30" y="385.8267" clip-path="url(#clipPath2)"/>
    </g>
    <g fill="rgb(210,210,210)" text-rendering="geometricPrecision" shape-rendering="geometricPrecision" transform="matrix(1,0,0,1,-117,173) translate(4,4)" stroke="rgb(210,210,210)">
      <rect x="902.8219" width="244.375" height="136.8838" y="475.1162" clip-path="url(#clipPath3)" stroke="none"/>
    </g>
    <g fill="rgb(222,220,196)" text-rendering="geometricPrecision" shape-rendering="geometricPrecision" transform="matrix(1,0,0,1,-117,173)" stroke="rgb(222,220,196)">
      <rect x="902.8219" width="244.375" height="136.8838" y="475.1162" clip-path="url(#clipPath2)" stroke="none"/>
      <rect x="902.8219" y="475.1162" clip-path="url(#clipPath2)" fill="rgb(183,182,158)" width="244.375" height="21.4609" stroke="none"/>
    </g>
    <g font-size="15" stroke-linecap="butt" transform="matrix(1,0,0,1,-117,173)" text-rendering="geometricPrecision" font-family="sans-serif" shape-rendering="geometricPrecision" stroke-miterlimit="1.45">
      <text x="1043.0314" xml:space="preserve" y="491.0396" clip-path="url(#clipPath2)" stroke="none">TransDiffExpr</text>
      <rect fill="none" x="902.8219" width="244.375" height="136.8838" y="475.1162" clip-path="url(#clipPath2)"/>
    </g>
    <g fill="rgb(192,218,179)" text-rendering="geometricPrecision" shape-rendering="geometricPrecision" transform="matrix(1,0,0,1,-117,173)" stroke="rgb(192,218,179)">
      <rect x="917.8219" width="214.375" height="30" y="511.5771" clip-path="url(#clipPath2)" stroke="none"/>
    </g>
    <g text-rendering="geometricPrecision" stroke-miterlimit="1.45" shape-rendering="geometricPrecision" font-family="sans-serif" transform="matrix(1,0,0,1,-117,173)" stroke-linecap="butt">
      <text x="1005.8463" xml:space="preserve" y="530.7314" clip-path="url(#clipPath2)" stroke="none">Read1</text>
      <rect fill="none" x="917.8219" width="214.375" height="30" y="511.5771" clip-path="url(#clipPath2)"/>
    </g>
    <g fill="rgb(192,218,179)" text-rendering="geometricPrecision" shape-rendering="geometricPrecision" transform="matrix(1,0,0,1,-117,173)" stroke="rgb(192,218,179)">
      <rect x="917.8219" width="214.375" height="30" y="537" clip-path="url(#clipPath2)" stroke="none"/>
    </g>
    <g text-rendering="geometricPrecision" stroke-miterlimit="1.45" shape-rendering="geometricPrecision" font-family="sans-serif" transform="matrix(1,0,0,1,-117,173)" stroke-linecap="butt">
      <text x="1005.8463" xml:space="preserve" y="556.1543" clip-path="url(#clipPath2)" stroke="none">Read2</text>
      <rect fill="none" x="917.8219" width="214.375" height="30" y="537" clip-path="url(#clipPath2)"/>
    </g>
    <g fill="rgb(192,218,179)" text-rendering="geometricPrecision" shape-rendering="geometricPrecision" transform="matrix(1,0,0,1,-117,173)" stroke="rgb(192,218,179)">
      <rect x="917.8219" width="214.375" height="30" y="567" clip-path="url(#clipPath2)" stroke="none"/>
    </g>
    <g text-rendering="geometricPrecision" stroke-miterlimit="1.45" shape-rendering="geometricPrecision" font-family="sans-serif" transform="matrix(1,0,0,1,-117,173)" stroke-linecap="butt">
      <text x="1017.3805" xml:space="preserve" y="586.1543" clip-path="url(#clipPath2)" stroke="none">....</text>
      <rect fill="none" x="917.8219" width="214.375" height="30" y="567" clip-path="url(#clipPath2)"/>
    </g>
    <g fill="rgb(210,210,210)" text-rendering="geometricPrecision" shape-rendering="geometricPrecision" transform="matrix(1,0,0,1,-117,173) translate(4,4)" stroke="rgb(210,210,210)">
      <rect x="132" width="640" height="397.9219" y="229.0781" clip-path="url(#clipPath3)" stroke="none"/>
    </g>
    <g fill="rgb(242,240,216)" text-rendering="geometricPrecision" shape-rendering="geometricPrecision" transform="matrix(1,0,0,1,-117,173)" stroke="rgb(242,240,216)">
      <rect x="132" width="640" height="397.9219" y="229.0781" clip-path="url(#clipPath2)" stroke="none"/>
      <rect x="132" y="229.0781" clip-path="url(#clipPath2)" fill="rgb(255,254,107)" width="640" height="21.4609" stroke="none"/>
    </g>
    <g font-size="15" stroke-linecap="butt" transform="matrix(1,0,0,1,-117,173)" text-rendering="geometricPrecision" font-family="sans-serif" shape-rendering="geometricPrecision" stroke-miterlimit="1.45">
      <text x="659.9463" xml:space="preserve" y="245.0015" clip-path="url(#clipPath2)" stroke="none">StructuralData</text>
      <rect fill="none" x="132" width="640" height="397.9219" y="229.0781" clip-path="url(#clipPath2)"/>
    </g>
    <g fill="rgb(225,225,225)" text-rendering="geometricPrecision" shape-rendering="geometricPrecision" transform="matrix(1,0,0,1,-117,173)" stroke="rgb(225,225,225)">
      <rect x="147" y="265.5391" clip-path="url(#clipPath2)" width="104" rx="4" ry="4" height="346.4609" stroke="none"/>
      <rect x="147" y="265.5391" clip-path="url(#clipPath2)" fill="rgb(235,235,235)" width="104" height="21.4609" stroke="none"/>
    </g>
    <g font-size="15" stroke-linecap="butt" transform="matrix(1,0,0,1,-117,173)" text-rendering="geometricPrecision" font-family="sans-serif" shape-rendering="geometricPrecision" stroke-miterlimit="1.45">
      <text x="193.3579" xml:space="preserve" y="281.4624" clip-path="url(#clipPath2)" stroke="none">Studies</text>
      <rect x="147" y="265.5391" clip-path="url(#clipPath2)" fill="none" width="104" stroke-dasharray="6,2" rx="4" ry="4" height="346.4609"/>
    </g>
    <g fill="rgb(255,254,107)" text-rendering="geometricPrecision" shape-rendering="geometricPrecision" transform="matrix(1,0,0,1,-117,173)" stroke="rgb(255,254,107)">
      <rect x="162" width="74" height="32" y="424" clip-path="url(#clipPath2)" stroke="none"/>
    </g>
    <g text-rendering="geometricPrecision" stroke-miterlimit="1.45" shape-rendering="geometricPrecision" font-family="sans-serif" transform="matrix(1,0,0,1,-117,173)" stroke-linecap="butt">
      <text x="182.3916" xml:space="preserve" y="444.1543" clip-path="url(#clipPath2)" stroke="none">TCGA</text>
      <rect fill="none" x="162" width="74" height="32" y="424" clip-path="url(#clipPath2)"/>
    </g>
    <g fill="rgb(225,225,225)" text-rendering="geometricPrecision" shape-rendering="geometricPrecision" transform="matrix(1,0,0,1,-117,173)" stroke="rgb(225,225,225)">
      <rect x="267" y="265.5391" clip-path="url(#clipPath2)" width="147" rx="4" ry="4" height="346.4609" stroke="none"/>
      <rect x="267" y="265.5391" clip-path="url(#clipPath2)" fill="rgb(235,235,235)" width="147" height="21.4609" stroke="none"/>
    </g>
    <g font-size="15" stroke-linecap="butt" transform="matrix(1,0,0,1,-117,173)" text-rendering="geometricPrecision" font-family="sans-serif" shape-rendering="geometricPrecision" stroke-miterlimit="1.45">
      <text x="351.2822" xml:space="preserve" y="281.4624" clip-path="url(#clipPath2)" stroke="none">Patients</text>
      <rect x="267" y="265.5391" clip-path="url(#clipPath2)" fill="none" width="147" stroke-dasharray="6,2" rx="4" ry="4" height="346.4609"/>
    </g>
    <g fill="rgb(255,254,107)" text-rendering="geometricPrecision" shape-rendering="geometricPrecision" transform="matrix(1,0,0,1,-117,173)" stroke="rgb(255,254,107)">
      <rect x="282" width="102" height="27" y="347" clip-path="url(#clipPath2)" stroke="none"/>
    </g>
    <g text-rendering="geometricPrecision" stroke-miterlimit="1.45" shape-rendering="geometricPrecision" font-family="sans-serif" transform="matrix(1,0,0,1,-117,173)" stroke-linecap="butt">
      <text x="287.9971" xml:space="preserve" y="364.6543" clip-path="url(#clipPath2)" stroke="none">TCGA-01-AAXX</text>
      <rect fill="none" x="282" width="102" height="27" y="347" clip-path="url(#clipPath2)"/>
    </g>
    <g fill="rgb(255,254,107)" text-rendering="geometricPrecision" shape-rendering="geometricPrecision" transform="matrix(1,0,0,1,-117,173)" stroke="rgb(255,254,107)">
      <rect x="282" width="102" height="27" y="525" clip-path="url(#clipPath2)" stroke="none"/>
    </g>
    <g text-rendering="geometricPrecision" stroke-miterlimit="1.45" shape-rendering="geometricPrecision" font-family="sans-serif" transform="matrix(1,0,0,1,-117,173)" stroke-linecap="butt">
      <text x="288.8877" xml:space="preserve" y="542.6543" clip-path="url(#clipPath2)" stroke="none">TCGA-01-AAYY</text>
      <rect fill="none" x="282" width="102" height="27" y="525" clip-path="url(#clipPath2)"/>
      <path fill="none" d="M225.9686 424 L303.3651 378.0819" clip-path="url(#clipPath2)"/>
      <path d="M310.2453 374 L297.3737 375.8228 L302.505 378.5922 L302.4762 384.4231 Z" clip-path="url(#clipPath2)" stroke="none"/>
      <path fill="none" d="M333 347 L333 34.2852" clip-path="url(#clipPath2)"/>
      <path d="M333 26.2852 L328 38.2852 L333 35.2852 L338 38.2852 Z" clip-path="url(#clipPath2)" stroke="none"/>
      <path fill="none" d="M220.7665 456 L308.1886 520.2618" clip-path="url(#clipPath2)"/>
      <path d="M314.6345 525 L307.9271 513.864 L307.3829 519.6695 L302.0043 521.9214 Z" clip-path="url(#clipPath2)" stroke="none"/>
    </g>
    <g fill="rgb(225,225,225)" text-rendering="geometricPrecision" shape-rendering="geometricPrecision" transform="matrix(1,0,0,1,-117,173)" stroke="rgb(225,225,225)">
      <rect x="422.1445" y="265.5391" clip-path="url(#clipPath2)" width="164.1055" rx="4" ry="4" height="346.4609" stroke="none"/>
      <rect x="422.1445" y="265.5391" clip-path="url(#clipPath2)" fill="rgb(235,235,235)" width="164.1055" height="21.4609" stroke="none"/>
    </g>
    <g font-size="15" stroke-linecap="butt" transform="matrix(1,0,0,1,-117,173)" text-rendering="geometricPrecision" font-family="sans-serif" shape-rendering="geometricPrecision" stroke-miterlimit="1.45">
      <text x="520.1924" xml:space="preserve" y="281.4624" clip-path="url(#clipPath2)" stroke="none">Samples</text>
      <rect x="422.1445" y="265.5391" clip-path="url(#clipPath2)" fill="none" width="164.1055" stroke-dasharray="6,2" rx="4" ry="4" height="346.4609"/>
    </g>
    <g fill="rgb(255,254,107)" text-rendering="geometricPrecision" shape-rendering="geometricPrecision" transform="matrix(1,0,0,1,-117,173)" stroke="rgb(255,254,107)">
      <rect x="451" width="120.25" height="27" y="302" clip-path="url(#clipPath2)" stroke="none"/>
    </g>
    <g text-rendering="geometricPrecision" stroke-miterlimit="1.45" shape-rendering="geometricPrecision" font-family="sans-serif" transform="matrix(1,0,0,1,-117,173)" stroke-linecap="butt">
      <text x="456.3223" xml:space="preserve" y="319.6543" clip-path="url(#clipPath2)" stroke="none">TCGA-01-AAXX-10</text>
      <rect fill="none" x="451" width="120.25" height="27" y="302" clip-path="url(#clipPath2)"/>
    </g>
    <g fill="rgb(255,254,107)" text-rendering="geometricPrecision" shape-rendering="geometricPrecision" transform="matrix(1,0,0,1,-117,173)" stroke="rgb(255,254,107)">
      <rect x="451" width="120.25" height="27" y="347" clip-path="url(#clipPath2)" stroke="none"/>
    </g>
    <g text-rendering="geometricPrecision" stroke-miterlimit="1.45" shape-rendering="geometricPrecision" font-family="sans-serif" transform="matrix(1,0,0,1,-117,173)" stroke-linecap="butt">
      <text x="456.3223" xml:space="preserve" y="364.6543" clip-path="url(#clipPath2)" stroke="none">TCGA-01-AAXX-01</text>
      <rect fill="none" x="451" width="120.25" height="27" y="347" clip-path="url(#clipPath2)"/>
    </g>
    <g fill="rgb(255,254,107)" text-rendering="geometricPrecision" shape-rendering="geometricPrecision" transform="matrix(1,0,0,1,-117,173)" stroke="rgb(255,254,107)">
      <rect x="451" width="120.25" height="27" y="392" clip-path="url(#clipPath2)" stroke="none"/>
    </g>
    <g text-rendering="geometricPrecision" stroke-miterlimit="1.45" shape-rendering="geometricPrecision" font-family="sans-serif" transform="matrix(1,0,0,1,-117,173)" stroke-linecap="butt">
      <text x="456.3223" xml:space="preserve" y="409.6543" clip-path="url(#clipPath2)" stroke="none">TCGA-01-AAXX-50</text>
      <rect fill="none" x="451" width="120.25" height="27" y="392" clip-path="url(#clipPath2)"/>
    </g>
    <g fill="rgb(255,254,107)" text-rendering="geometricPrecision" shape-rendering="geometricPrecision" transform="matrix(1,0,0,1,-117,173)" stroke="rgb(255,254,107)">
      <rect x="451" width="120.25" height="27" y="480" clip-path="url(#clipPath2)" stroke="none"/>
    </g>
    <g text-rendering="geometricPrecision" stroke-miterlimit="1.45" shape-rendering="geometricPrecision" font-family="sans-serif" transform="matrix(1,0,0,1,-117,173)" stroke-linecap="butt">
      <text x="457.2129" xml:space="preserve" y="497.6543" clip-path="url(#clipPath2)" stroke="none">TCGA-01-AAYY-10</text>
      <rect fill="none" x="451" width="120.25" height="27" y="480" clip-path="url(#clipPath2)"/>
    </g>
    <g fill="rgb(255,254,107)" text-rendering="geometricPrecision" shape-rendering="geometricPrecision" transform="matrix(1,0,0,1,-117,173)" stroke="rgb(255,254,107)">
      <rect x="451" width="120.25" height="27" y="525" clip-path="url(#clipPath2)" stroke="none"/>
    </g>
    <g text-rendering="geometricPrecision" stroke-miterlimit="1.45" shape-rendering="geometricPrecision" font-family="sans-serif" transform="matrix(1,0,0,1,-117,173)" stroke-linecap="butt">
      <text x="457.2129" xml:space="preserve" y="542.6543" clip-path="url(#clipPath2)" stroke="none">TCGA-01-AAYY-01</text>
      <rect fill="none" x="451" width="120.25" height="27" y="525" clip-path="url(#clipPath2)"/>
    </g>
    <g fill="rgb(255,254,107)" text-rendering="geometricPrecision" shape-rendering="geometricPrecision" transform="matrix(1,0,0,1,-117,173)" stroke="rgb(255,254,107)">
      <rect x="451" width="120.25" height="27" y="570" clip-path="url(#clipPath2)" stroke="none"/>
    </g>
    <g text-rendering="geometricPrecision" stroke-miterlimit="1.45" shape-rendering="geometricPrecision" font-family="sans-serif" transform="matrix(1,0,0,1,-117,173)" stroke-linecap="butt">
      <text x="457.2129" xml:space="preserve" y="587.6543" clip-path="url(#clipPath2)" stroke="none">TCGA-01-AAYY-50</text>
      <rect fill="none" x="451" width="120.25" height="27" y="570" clip-path="url(#clipPath2)"/>
      <path fill="none" d="M384 347.6158 L449.9312 330.9595" clip-path="url(#clipPath2)"/>
      <path d="M457.6875 329 L444.8283 327.0916 L448.9616 331.2044 L447.2777 336.787 Z" clip-path="url(#clipPath2)" stroke="none"/>
      <path fill="none" d="M384 360.5 L443 360.5" clip-path="url(#clipPath2)"/>
      <path d="M451 360.5 L439 355.5 L442 360.5 L439 365.5 Z" clip-path="url(#clipPath2)" stroke="none"/>
      <path fill="none" d="M384 373.3842 L449.9312 390.0405" clip-path="url(#clipPath2)"/>
      <path d="M457.6875 392 L447.2777 384.213 L448.9616 389.7956 L444.8283 393.9084 Z" clip-path="url(#clipPath2)" stroke="none"/>
      <path fill="none" d="M384 525.6158 L449.9312 508.9595" clip-path="url(#clipPath2)"/>
      <path d="M457.6875 507 L444.8283 505.0916 L448.9616 509.2044 L447.2777 514.7869 Z" clip-path="url(#clipPath2)" stroke="none"/>
      <path fill="none" d="M384 538.5 L443 538.5" clip-path="url(#clipPath2)"/>
      <path d="M451 538.5 L439 533.5 L442 538.5 L439 543.5 Z" clip-path="url(#clipPath2)" stroke="none"/>
      <path fill="none" d="M384 551.3842 L449.9312 568.0405" clip-path="url(#clipPath2)"/>
      <path d="M457.6875 570 L447.2777 562.2131 L448.9616 567.7956 L444.8283 571.9085 Z" clip-path="url(#clipPath2)" stroke="none"/>
    </g>
    <g fill="rgb(225,225,225)" text-rendering="geometricPrecision" shape-rendering="geometricPrecision" transform="matrix(1,0,0,1,-117,173)" stroke="rgb(225,225,225)">
      <rect x="603" y="265.5391" clip-path="url(#clipPath2)" width="154" rx="4" ry="4" height="346.4609" stroke="none"/>
      <rect x="603" y="265.5391" clip-path="url(#clipPath2)" fill="rgb(235,235,235)" width="154" height="21.4609" stroke="none"/>
    </g>
    <g font-size="15" stroke-linecap="butt" transform="matrix(1,0,0,1,-117,173)" text-rendering="geometricPrecision" font-family="sans-serif" shape-rendering="geometricPrecision" stroke-miterlimit="1.45">
      <text x="688.4448" xml:space="preserve" y="281.4624" clip-path="url(#clipPath2)" stroke="none">Datasets</text>
      <rect x="603" y="265.5391" clip-path="url(#clipPath2)" fill="none" width="154" stroke-dasharray="6,2" rx="4" ry="4" height="346.4609"/>
    </g>
    <g fill="rgb(255,254,107)" text-rendering="geometricPrecision" shape-rendering="geometricPrecision" transform="matrix(1,0,0,1,-117,173)" stroke="rgb(255,254,107)">
      <rect x="647" width="82" height="28.5" y="398.5" clip-path="url(#clipPath2)" stroke="none"/>
    </g>
    <g text-rendering="geometricPrecision" stroke-miterlimit="1.45" shape-rendering="geometricPrecision" font-family="sans-serif" transform="matrix(1,0,0,1,-117,173)" stroke-linecap="butt">
      <text x="660.6865" xml:space="preserve" y="416.9043" clip-path="url(#clipPath2)" stroke="none">Dataset1</text>
      <rect fill="none" x="647" width="82" height="28.5" y="398.5" clip-path="url(#clipPath2)"/>
    </g>
    <g fill="rgb(255,254,107)" text-rendering="geometricPrecision" shape-rendering="geometricPrecision" transform="matrix(1,0,0,1,-117,173)" stroke="rgb(255,254,107)">
      <rect x="651" width="74" height="27" y="525" clip-path="url(#clipPath2)" stroke="none"/>
    </g>
    <g text-rendering="geometricPrecision" stroke-miterlimit="1.45" shape-rendering="geometricPrecision" font-family="sans-serif" transform="matrix(1,0,0,1,-117,173)" stroke-linecap="butt">
      <text x="660.6865" xml:space="preserve" y="542.6543" clip-path="url(#clipPath2)" stroke="none">Dataset2</text>
      <rect fill="none" x="651" width="74" height="27" y="525" clip-path="url(#clipPath2)"/>
      <path fill="none" d="M535.6783 329 L655.0723 394.6456" clip-path="url(#clipPath2)"/>
      <path d="M662.0826 398.5 L653.9762 388.337 L654.196 394.1638 L649.1582 397.0998 Z" clip-path="url(#clipPath2)" stroke="none"/>
      <path fill="none" d="M540.6954 480 L649.5093 430.3224" clip-path="url(#clipPath2)"/>
      <path d="M656.7867 427 L643.794 427.4352 L648.5996 430.7377 L647.9471 436.532 Z" clip-path="url(#clipPath2)" stroke="none"/>
      <path fill="none" d="M898.0219 380.9092 L736.9096 405.335" clip-path="url(#clipPath2)"/>
      <path d="M729 406.5341 L741.6139 409.6789 L737.8983 405.1851 L740.1149 399.7919 Z" clip-path="url(#clipPath2)" stroke="none"/>
      <path fill="none" d="M564.1875 507 L643.247 527.1141" clip-path="url(#clipPath2)"/>
      <path d="M651 529.0865 L640.6033 521.2822 L642.2778 526.8675 L638.1377 530.9734 Z" clip-path="url(#clipPath2)" stroke="none"/>
      <path fill="none" d="M571.25 538.5 L643 538.5" clip-path="url(#clipPath2)"/>
      <path d="M651 538.5 L639 533.5 L642 538.5 L639 543.5 Z" clip-path="url(#clipPath2)" stroke="none"/>
      <path fill="none" d="M564.1875 570 L643.247 549.8859" clip-path="url(#clipPath2)"/>
      <path d="M651 547.9135 L638.1377 546.0266 L642.2778 550.1325 L640.6033 555.7178 Z" clip-path="url(#clipPath2)" stroke="none"/>
      <path fill="none" d="M902.8219 541.7242 L732.9991 539.1754" clip-path="url(#clipPath2)"/>
      <path d="M725 539.0553 L736.9236 544.2348 L733.999 539.1904 L737.0737 534.236 Z" clip-path="url(#clipPath2)" stroke="none"/>
    </g>
    <g fill="rgb(210,210,210)" text-rendering="geometricPrecision" shape-rendering="geometricPrecision" transform="matrix(1,0,0,1,-117,173) translate(4,4)" stroke="rgb(210,210,210)">
      <rect x="958.0219" width="244.375" height="106.8838" y="-32.9609" clip-path="url(#clipPath3)" stroke="none"/>
    </g>
    <g fill="rgb(102,153,102)" text-rendering="geometricPrecision" shape-rendering="geometricPrecision" transform="matrix(1,0,0,1,-117,173)" stroke="rgb(102,153,102)">
      <rect x="958.0219" width="244.375" height="21.4609" y="-32.9609" clip-path="url(#clipPath2)" stroke="none"/>
    </g>
    <g font-size="15" stroke-linecap="butt" transform="matrix(1,0,0,1,-117,173)" text-rendering="geometricPrecision" font-family="sans-serif" shape-rendering="geometricPrecision" stroke-miterlimit="1.45">
      <text x="1124.994" xml:space="preserve" y="-17.0376" clip-path="url(#clipPath2)" stroke="none">GeneData</text>
      <rect fill="none" x="958.0219" width="244.375" height="106.8838" y="-32.9609" clip-path="url(#clipPath2)"/>
    </g>
    <g fill="rgb(102,153,102)" text-rendering="geometricPrecision" shape-rendering="geometricPrecision" transform="matrix(1,0,0,1,-117,173)" stroke="rgb(102,153,102)">
      <rect x="973.0219" width="214.375" height="30" y="3.5" clip-path="url(#clipPath2)" stroke="none"/>
    </g>
    <g text-rendering="geometricPrecision" stroke-miterlimit="1.45" shape-rendering="geometricPrecision" font-family="sans-serif" transform="matrix(1,0,0,1,-117,173)" stroke-linecap="butt">
      <text x="1060.557" xml:space="preserve" y="22.6543" clip-path="url(#clipPath2)" stroke="none">Gene1</text>
      <rect fill="none" x="973.0219" width="214.375" height="30" y="3.5" clip-path="url(#clipPath2)"/>
    </g>
    <g fill="rgb(102,153,102)" text-rendering="geometricPrecision" shape-rendering="geometricPrecision" transform="matrix(1,0,0,1,-117,173)" stroke="rgb(102,153,102)">
      <rect x="973.0219" width="214.375" height="30" y="28.9229" clip-path="url(#clipPath2)" stroke="none"/>
    </g>
    <g text-rendering="geometricPrecision" stroke-miterlimit="1.45" shape-rendering="geometricPrecision" font-family="sans-serif" transform="matrix(1,0,0,1,-117,173)" stroke-linecap="butt">
      <text x="1060.557" xml:space="preserve" y="48.0771" clip-path="url(#clipPath2)" stroke="none">Gene2</text>
      <rect fill="none" x="973.0219" width="214.375" height="30" y="28.9229" clip-path="url(#clipPath2)"/>
      <path fill="none" d="M1127.3969 370.8267 L1286.3484 370.8267 L1286.3484 18.5 L1195.3969 18.5" clip-path="url(#clipPath2)"/>
      <path d="M1187.3969 18.5 L1199.3969 23.5 L1196.3969 18.5 L1199.3969 13.5 Z" clip-path="url(#clipPath2)" stroke="none"/>
      <path fill="none" d="M1127.3969 345.4038 L1235.3484 345.4038 L1235.3484 43.9229 L1195.3969 43.9229" clip-path="url(#clipPath2)"/>
      <path d="M1187.3969 43.9229 L1199.3969 48.9229 L1196.3969 43.9229 L1199.3969 38.9229 Z" clip-path="url(#clipPath2)" stroke="none"/>
    </g>
  </g>
</svg>
