<?xml version="1.0" encoding="UTF-8"?><svg xmlns="http://www.w3.org/2000/svg" xmlns:xlink="http://www.w3.org/1999/xlink" fill-opacity="1" color-rendering="auto" color-interpolation="auto" text-rendering="auto" stroke="black" stroke-linecap="square" width="1285" stroke-miterlimit="10" shape-rendering="auto" stroke-opacity="1" fill="black" stroke-dasharray="none" font-weight="normal" stroke-width="1" height="688" font-family="'Dialog'" font-style="normal" stroke-linejoin="miter" font-size="12" stroke-dashoffset="0" image-rendering="auto">
  <!--Generated by ySVG 2.5-->
  <defs id="genericDefs"/>
  <g>
    <defs id="defs1">
      <clipPath clipPathUnits="userSpaceOnUse" id="clipPath1">
        <path d="M0 0 L1285 0 L1285 688 L0 688 L0 0 Z"/>
      </clipPath>
      <clipPath clipPathUnits="userSpaceOnUse" id="clipPath2">
        <path d="M117 -40 L1402 -40 L1402 648 L117 648 L117 -40 Z"/>
      </clipPath>
      <clipPath clipPathUnits="userSpaceOnUse" id="clipPath3">
        <path d="M113 -44 L1398 -44 L1398 644 L113 644 L113 -44 Z"/>
      </clipPath>
    </defs>
    <g fill="white" text-rendering="geometricPrecision" shape-rendering="geometricPrecision" transform="translate(-117,40)" stroke="white">
      <rect x="117" width="1285" height="688" y="-40" clip-path="url(#clipPath2)" stroke="none"/>
    </g>
    <g fill="rgb(255,254,107)" text-rendering="geometricPrecision" shape-rendering="geometricPrecision" transform="matrix(1,0,0,1,-117,40)" stroke="rgb(255,254,107)">
      <rect x="651" width="82" height="26" y="367.9038" clip-path="url(#clipPath2)" stroke="none"/>
    </g>
    <g text-rendering="geometricPrecision" stroke-miterlimit="1.45" shape-rendering="geometricPrecision" font-family="sans-serif" transform="matrix(1,0,0,1,-117,40)" stroke-linecap="butt">
      <text x="668.5039" xml:space="preserve" y="385.0581" clip-path="url(#clipPath2)" stroke="none">Dataset</text>
      <rect fill="none" x="651" width="82" height="26" y="367.9038" clip-path="url(#clipPath2)"/>
    </g>
    <g fill="rgb(255,254,107)" text-rendering="geometricPrecision" shape-rendering="geometricPrecision" transform="matrix(1,0,0,1,-117,40)" stroke="rgb(255,254,107)">
      <rect x="451" width="120.25" height="24.5" y="368.6538" clip-path="url(#clipPath2)" stroke="none"/>
    </g>
    <g text-rendering="geometricPrecision" stroke-miterlimit="1.45" shape-rendering="geometricPrecision" font-family="sans-serif" transform="matrix(1,0,0,1,-117,40)" stroke-linecap="butt">
      <text x="488.6279" xml:space="preserve" y="385.0581" clip-path="url(#clipPath2)" stroke="none">Sample</text>
      <rect fill="none" x="451" width="120.25" height="24.5" y="368.6538" clip-path="url(#clipPath2)"/>
    </g>
    <g fill="rgb(255,254,107)" text-rendering="geometricPrecision" shape-rendering="geometricPrecision" transform="matrix(1,0,0,1,-117,40)" stroke="rgb(255,254,107)">
      <rect x="282" width="102" height="24.5" y="365.9038" clip-path="url(#clipPath2)" stroke="none"/>
    </g>
    <g text-rendering="geometricPrecision" stroke-miterlimit="1.45" shape-rendering="geometricPrecision" font-family="sans-serif" transform="matrix(1,0,0,1,-117,40)" stroke-linecap="butt">
      <text x="311.8389" xml:space="preserve" y="382.3081" clip-path="url(#clipPath2)" stroke="none">Patient</text>
      <rect fill="none" x="282" width="102" height="24.5" y="365.9038" clip-path="url(#clipPath2)"/>
    </g>
    <g fill="rgb(255,254,107)" text-rendering="geometricPrecision" shape-rendering="geometricPrecision" transform="matrix(1,0,0,1,-117,40)" stroke="rgb(255,254,107)">
      <rect x="132" width="74" height="24.5" y="365.9038" clip-path="url(#clipPath2)" stroke="none"/>
    </g>
    <g text-rendering="geometricPrecision" stroke-miterlimit="1.45" shape-rendering="geometricPrecision" font-family="sans-serif" transform="matrix(1,0,0,1,-117,40)" stroke-linecap="butt">
      <text x="151.6768" xml:space="preserve" y="382.3081" clip-path="url(#clipPath2)" stroke="none">Study</text>
      <rect fill="none" x="132" width="74" height="24.5" y="365.9038" clip-path="url(#clipPath2)"/>
    </g>
    <g fill="rgb(188,170,255)" text-rendering="geometricPrecision" shape-rendering="geometricPrecision" transform="matrix(1,0,0,1,-117,40)" stroke="rgb(188,170,255)">
      <rect x="295.1688" width="102" height="26" y="117.2852" clip-path="url(#clipPath2)" stroke="none"/>
    </g>
    <g text-rendering="geometricPrecision" stroke-miterlimit="1.45" shape-rendering="geometricPrecision" font-family="sans-serif" transform="matrix(1,0,0,1,-117,40)" stroke-linecap="butt">
      <text x="314.9002" xml:space="preserve" y="134.4395" clip-path="url(#clipPath2)" stroke="none">ImportInfo</text>
      <rect fill="none" x="295.1688" width="102" height="26" y="117.2852" clip-path="url(#clipPath2)"/>
    </g>
    <g fill="rgb(188,170,255)" text-rendering="geometricPrecision" shape-rendering="geometricPrecision" transform="matrix(1,0,0,1,-117,40)" stroke="rgb(188,170,255)">
      <rect x="479.1688" width="330" height="26" y="117.2852" clip-path="url(#clipPath2)" stroke="none"/>
    </g>
    <g text-rendering="geometricPrecision" stroke-miterlimit="1.45" shape-rendering="geometricPrecision" font-family="sans-serif" transform="matrix(1,0,0,1,-117,40)" stroke-linecap="butt">
      <text x="587.6961" xml:space="preserve" y="134.4395" clip-path="url(#clipPath2)" stroke="none">ClinicalInformation</text>
      <rect fill="none" x="479.1688" width="330" height="26" y="117.2852" clip-path="url(#clipPath2)"/>
    </g>
    <g fill="rgb(102,153,102)" text-rendering="geometricPrecision" shape-rendering="geometricPrecision" transform="matrix(1,0,0,1,-117,40)" stroke="rgb(102,153,102)">
      <rect x="1124.2719" width="214.375" height="25.5" y="373.4038" clip-path="url(#clipPath2)" stroke="none"/>
    </g>
    <g text-rendering="geometricPrecision" stroke-miterlimit="1.45" shape-rendering="geometricPrecision" font-family="sans-serif" transform="matrix(1,0,0,1,-117,40)" stroke-linecap="butt">
      <text x="1215.6244" xml:space="preserve" y="390.3081" clip-path="url(#clipPath2)" stroke="none">Gene</text>
      <rect fill="none" x="1124.2719" width="214.375" height="25.5" y="373.4038" clip-path="url(#clipPath2)"/>
    </g>
    <g fill="rgb(192,218,179)" text-rendering="geometricPrecision" shape-rendering="geometricPrecision" transform="matrix(1,0,0,1,-117,40)" stroke="rgb(192,218,179)">
      <rect x="840.5219" width="214.375" height="29" y="369.9038" clip-path="url(#clipPath2)" stroke="none"/>
    </g>
    <g text-rendering="geometricPrecision" stroke-miterlimit="1.45" shape-rendering="geometricPrecision" font-family="sans-serif" transform="matrix(1,0,0,1,-117,40)" stroke-linecap="butt">
      <text x="933.3832" xml:space="preserve" y="388.5581" clip-path="url(#clipPath2)" stroke="none">Data</text>
      <rect fill="none" x="840.5219" width="214.375" height="29" y="369.9038" clip-path="url(#clipPath2)"/>
    </g>
    <g fill="rgb(192,218,179)" text-rendering="geometricPrecision" shape-rendering="geometricPrecision" transform="matrix(1,0,0,1,-117,40)" stroke="rgb(192,218,179)">
      <rect x="840.5219" width="214.375" height="25.5" y="315.4038" clip-path="url(#clipPath2)" stroke="none"/>
    </g>
    <g text-rendering="geometricPrecision" stroke-miterlimit="1.45" shape-rendering="geometricPrecision" font-family="sans-serif" transform="matrix(1,0,0,1,-117,40)" stroke-linecap="butt">
      <text x="940.0834" xml:space="preserve" y="332.3081" clip-path="url(#clipPath2)" stroke="none">4b</text>
      <rect fill="none" x="840.5219" width="214.375" height="25.5" y="315.4038" clip-path="url(#clipPath2)"/>
    </g>
    <g fill="rgb(102,153,102)" text-rendering="geometricPrecision" shape-rendering="geometricPrecision" transform="matrix(1,0,0,1,-117,40)" stroke="rgb(102,153,102)">
      <rect x="1124.2719" width="214.375" height="30" y="313.4038" clip-path="url(#clipPath2)" stroke="none"/>
    </g>
    <g text-rendering="geometricPrecision" stroke-miterlimit="1.45" shape-rendering="geometricPrecision" font-family="sans-serif" transform="matrix(1,0,0,1,-117,40)" stroke-linecap="butt">
      <text x="1223.8334" xml:space="preserve" y="332.5581" clip-path="url(#clipPath2)" stroke="none">5b</text>
      <rect fill="none" x="1124.2719" width="214.375" height="30" y="313.4038" clip-path="url(#clipPath2)"/>
    </g>
    <g fill="rgb(255,254,107)" text-rendering="geometricPrecision" shape-rendering="geometricPrecision" transform="matrix(1,0,0,1,-117,40)" stroke="rgb(255,254,107)">
      <rect x="651" width="82" height="28.5" y="313.9038" clip-path="url(#clipPath2)" stroke="none"/>
    </g>
    <g text-rendering="geometricPrecision" stroke-miterlimit="1.45" shape-rendering="geometricPrecision" font-family="sans-serif" transform="matrix(1,0,0,1,-117,40)" stroke-linecap="butt">
      <text x="684.8838" xml:space="preserve" y="332.3081" clip-path="url(#clipPath2)" stroke="none">3c</text>
      <rect fill="none" x="651" width="82" height="28.5" y="313.9038" clip-path="url(#clipPath2)"/>
    </g>
    <g fill="rgb(255,254,107)" text-rendering="geometricPrecision" shape-rendering="geometricPrecision" transform="matrix(1,0,0,1,-117,40)" stroke="rgb(255,254,107)">
      <rect x="451" width="120.25" height="27" y="314.6538" clip-path="url(#clipPath2)" stroke="none"/>
    </g>
    <g text-rendering="geometricPrecision" stroke-miterlimit="1.45" shape-rendering="geometricPrecision" font-family="sans-serif" transform="matrix(1,0,0,1,-117,40)" stroke-linecap="butt">
      <text x="503.499" xml:space="preserve" y="332.3081" clip-path="url(#clipPath2)" stroke="none">2b</text>
      <rect fill="none" x="451" width="120.25" height="27" y="314.6538" clip-path="url(#clipPath2)"/>
    </g>
    <g fill="rgb(188,170,255)" text-rendering="geometricPrecision" shape-rendering="geometricPrecision" transform="matrix(1,0,0,1,-117,40)" stroke="rgb(188,170,255)">
      <rect x="295.1688" width="102" height="26" y="65.2852" clip-path="url(#clipPath2)" stroke="none"/>
    </g>
    <g text-rendering="geometricPrecision" stroke-miterlimit="1.45" shape-rendering="geometricPrecision" font-family="sans-serif" transform="matrix(1,0,0,1,-117,40)" stroke-linecap="butt">
      <text x="338.6746" xml:space="preserve" y="82.4395" clip-path="url(#clipPath2)" stroke="none">2a</text>
      <rect fill="none" x="295.1688" width="102" height="26" y="65.2852" clip-path="url(#clipPath2)"/>
    </g>
    <g fill="rgb(188,170,255)" text-rendering="geometricPrecision" shape-rendering="geometricPrecision" transform="matrix(1,0,0,1,-117,40)" stroke="rgb(188,170,255)">
      <rect x="479.1688" width="330" height="24" y="67.2852" clip-path="url(#clipPath2)" stroke="none"/>
    </g>
    <g text-rendering="geometricPrecision" stroke-miterlimit="1.45" shape-rendering="geometricPrecision" font-family="sans-serif" transform="matrix(1,0,0,1,-117,40)" stroke-linecap="butt">
      <text x="636.6746" xml:space="preserve" y="83.4395" clip-path="url(#clipPath2)" stroke="none">3a</text>
      <rect fill="none" x="479.1688" width="330" height="24" y="67.2852" clip-path="url(#clipPath2)"/>
    </g>
    <g fill="rgb(255,254,107)" text-rendering="geometricPrecision" shape-rendering="geometricPrecision" transform="matrix(1,0,0,1,-117,40)" stroke="rgb(255,254,107)">
      <rect x="282" width="102" height="27" y="314.6538" clip-path="url(#clipPath2)" stroke="none"/>
    </g>
    <g text-rendering="geometricPrecision" stroke-miterlimit="1.45" shape-rendering="geometricPrecision" font-family="sans-serif" transform="matrix(1,0,0,1,-117,40)" stroke-linecap="butt">
      <text x="330" xml:space="preserve" y="332.3081" clip-path="url(#clipPath2)" stroke="none">*</text>
      <rect fill="none" x="282" width="102" height="27" y="314.6538" clip-path="url(#clipPath2)"/>
    </g>
    <g fill="rgb(255,254,107)" text-rendering="geometricPrecision" shape-rendering="geometricPrecision" transform="matrix(1,0,0,1,-117,40)" stroke="rgb(255,254,107)">
      <rect x="282" width="102" height="27" y="341.6538" clip-path="url(#clipPath2)" stroke="none"/>
    </g>
    <g text-rendering="geometricPrecision" stroke-miterlimit="1.45" shape-rendering="geometricPrecision" font-family="sans-serif" transform="matrix(1,0,0,1,-117,40)" stroke-linecap="butt">
      <text x="329.1914" xml:space="preserve" y="359.3081" clip-path="url(#clipPath2)" stroke="none">p</text>
      <rect fill="none" x="282" width="102" height="27" y="341.6538" clip-path="url(#clipPath2)"/>
    </g>
    <g fill="rgb(255,254,107)" text-rendering="geometricPrecision" shape-rendering="geometricPrecision" transform="matrix(1,0,0,1,-117,40)" stroke="rgb(255,254,107)">
      <rect x="451" width="120.25" height="27" y="341.6538" clip-path="url(#clipPath2)" stroke="none"/>
    </g>
    <g text-rendering="geometricPrecision" stroke-miterlimit="1.45" shape-rendering="geometricPrecision" font-family="sans-serif" transform="matrix(1,0,0,1,-117,40)" stroke-linecap="butt">
      <text x="507.999" xml:space="preserve" y="359.3081" clip-path="url(#clipPath2)" stroke="none">s</text>
      <rect fill="none" x="451" width="120.25" height="27" y="341.6538" clip-path="url(#clipPath2)"/>
    </g>
    <g fill="rgb(255,254,107)" text-rendering="geometricPrecision" shape-rendering="geometricPrecision" transform="matrix(1,0,0,1,-117,40)" stroke="rgb(255,254,107)">
      <rect x="651" width="82" height="28.5" y="340.1538" clip-path="url(#clipPath2)" stroke="none"/>
    </g>
    <g text-rendering="geometricPrecision" stroke-miterlimit="1.45" shape-rendering="geometricPrecision" font-family="sans-serif" transform="matrix(1,0,0,1,-117,40)" stroke-linecap="butt">
      <text x="685.0654" xml:space="preserve" y="358.5581" clip-path="url(#clipPath2)" stroke="none">ds</text>
      <rect fill="none" x="651" width="82" height="28.5" y="340.1538" clip-path="url(#clipPath2)"/>
    </g>
    <g fill="rgb(192,218,179)" text-rendering="geometricPrecision" shape-rendering="geometricPrecision" transform="matrix(1,0,0,1,-117,40)" stroke="rgb(192,218,179)">
      <rect x="840.5219" width="214.375" height="29.75" y="340.1538" clip-path="url(#clipPath2)" stroke="none"/>
    </g>
    <g text-rendering="geometricPrecision" stroke-miterlimit="1.45" shape-rendering="geometricPrecision" font-family="sans-serif" transform="matrix(1,0,0,1,-117,40)" stroke-linecap="butt">
      <text x="943.9008" xml:space="preserve" y="359.1831" clip-path="url(#clipPath2)" stroke="none">d</text>
      <rect fill="none" x="840.5219" width="214.375" height="29.75" y="340.1538" clip-path="url(#clipPath2)"/>
    </g>
    <g fill="rgb(102,153,102)" text-rendering="geometricPrecision" shape-rendering="geometricPrecision" transform="matrix(1,0,0,1,-117,40)" stroke="rgb(102,153,102)">
      <rect x="1124.2719" width="214.375" height="30" y="343.1538" clip-path="url(#clipPath2)" stroke="none"/>
    </g>
    <g text-rendering="geometricPrecision" stroke-miterlimit="1.45" shape-rendering="geometricPrecision" font-family="sans-serif" transform="matrix(1,0,0,1,-117,40)" stroke-linecap="butt">
      <text x="1227.6508" xml:space="preserve" y="362.3081" clip-path="url(#clipPath2)" stroke="none">g</text>
      <rect fill="none" x="1124.2719" width="214.375" height="30" y="343.1538" clip-path="url(#clipPath2)"/>
    </g>
    <g fill="rgb(188,170,255)" text-rendering="geometricPrecision" shape-rendering="geometricPrecision" transform="matrix(1,0,0,1,-117,40)" stroke="rgb(188,170,255)">
      <rect x="295.1688" width="102" height="26" y="91.2852" clip-path="url(#clipPath2)" stroke="none"/>
    </g>
    <g text-rendering="geometricPrecision" stroke-miterlimit="1.45" shape-rendering="geometricPrecision" font-family="sans-serif" transform="matrix(1,0,0,1,-117,40)" stroke-linecap="butt">
      <text x="342.8348" xml:space="preserve" y="108.4395" clip-path="url(#clipPath2)" stroke="none">ii</text>
      <rect fill="none" x="295.1688" width="102" height="26" y="91.2852" clip-path="url(#clipPath2)"/>
    </g>
    <g fill="rgb(188,170,255)" text-rendering="geometricPrecision" shape-rendering="geometricPrecision" transform="matrix(1,0,0,1,-117,40)" stroke="rgb(188,170,255)">
      <rect x="479.1688" width="330" height="26" y="91.2852" clip-path="url(#clipPath2)" stroke="none"/>
    </g>
    <g text-rendering="geometricPrecision" stroke-miterlimit="1.45" shape-rendering="geometricPrecision" font-family="sans-serif" transform="matrix(1,0,0,1,-117,40)" stroke-linecap="butt">
      <text x="637.0613" xml:space="preserve" y="108.4395" clip-path="url(#clipPath2)" stroke="none">cd</text>
      <rect fill="none" x="479.1688" width="330" height="26" y="91.2852" clip-path="url(#clipPath2)"/>
      <path fill="none" d="M651 380.9038 L579.25 380.9038" clip-path="url(#clipPath2)"/>
      <path d="M571.25 380.9038 L583.25 385.9038 L580.25 380.9038 L583.25 375.9038 Z" clip-path="url(#clipPath2)" stroke="none"/>
      <text x="588.1846" xml:space="preserve" y="370.0581" clip-path="url(#clipPath2)" stroke="none">samples</text>
      <path fill="none" d="M451 379.9756 L391.9991 379.0647" clip-path="url(#clipPath2)"/>
      <path d="M384 378.9412 L395.9214 384.1258 L392.9989 379.0801 L396.0758 374.127 Z" clip-path="url(#clipPath2)" stroke="none"/>
      <text x="396.595" xml:space="preserve" y="369.616" clip-path="url(#clipPath2)" stroke="none">patient</text>
      <path fill="none" d="M282 378.1538 L214 378.1538" clip-path="url(#clipPath2)"/>
      <path d="M206 378.1538 L218 383.1538 L215 378.1538 L218 373.1538 Z" clip-path="url(#clipPath2)" stroke="none"/>
      <text x="228.3594" xml:space="preserve" y="368.3081" clip-path="url(#clipPath2)" stroke="none">study</text>
      <path fill="none" d="M479.1688 130.2852 L405.1688 130.2852" clip-path="url(#clipPath2)"/>
      <path d="M397.1688 130.2852 L409.1688 135.2852 L406.1688 130.2852 L409.1688 125.2852 Z" clip-path="url(#clipPath2)" stroke="none"/>
      <text x="408.0027" xml:space="preserve" y="119.4395" clip-path="url(#clipPath2)" stroke="none">importInfo</text>
      <path fill="none" d="M840.5219 382.9367 L740.9993 381.5745" clip-path="url(#clipPath2)"/>
      <path d="M733 381.465 L744.9304 386.6288 L741.9991 381.5882 L745.0673 376.6297 Z" clip-path="url(#clipPath2)" stroke="none"/>
      <text x="764.4869" xml:space="preserve" y="371.3579" clip-path="url(#clipPath2)" stroke="none">dataset</text>
      <path fill="none" d="M1054.8969 328.2483 L1116.2719 328.3023" clip-path="url(#clipPath2)"/>
      <path d="M1124.2719 328.3094 L1112.2762 323.2988 L1115.2719 328.3014 L1112.2675 333.2988 Z" clip-path="url(#clipPath2)" stroke="none"/>
      <text x="1072.5638" xml:space="preserve" y="320.4331" clip-path="url(#clipPath2)" stroke="none">gene</text>
      <path fill="none" d="M733 328.1538 L832.5219 328.1538" clip-path="url(#clipPath2)"/>
      <path d="M840.5219 328.1538 L828.5219 323.1538 L831.5219 328.1538 L828.5219 333.1538 Z" clip-path="url(#clipPath2)" stroke="none"/>
      <text x="743.7965" xml:space="preserve" y="291.3237" clip-path="url(#clipPath2)" stroke="none">DataTypeName</text>
      <text x="732.7047" xml:space="preserve" y="305.2925" clip-path="url(#clipPath2)" stroke="none">example: dataPeak</text>
      <path fill="none" d="M571.25 328.1538 L643 328.1538" clip-path="url(#clipPath2)"/>
      <path d="M651 328.1538 L639 323.1538 L642 328.1538 L639 333.1538 Z" clip-path="url(#clipPath2)" stroke="none"/>
      <text x="584.3145" xml:space="preserve" y="314.3081" clip-path="url(#clipPath2)" stroke="none">datasets</text>
      <path fill="none" d="M397.1688 78.4563 L471.1688 78.7046" clip-path="url(#clipPath2)"/>
      <path d="M479.1688 78.7315 L467.1856 73.6912 L470.1688 78.7013 L467.152 83.6912 Z" clip-path="url(#clipPath2)" stroke="none"/>
      <text x="427.1925" xml:space="preserve" y="67.8038" clip-path="url(#clipPath2)" stroke="none">infos</text>
      <path fill="none" d="M384 328.1538 L443 328.1538" clip-path="url(#clipPath2)"/>
      <path d="M451 328.1538 L439 323.1538 L442 328.1538 L439 333.1538 Z" clip-path="url(#clipPath2)" stroke="none"/>
      <text x="392.5596" xml:space="preserve" y="317.3081" clip-path="url(#clipPath2)" stroke="none">samples</text>
    </g>
    <g fill="rgb(210,210,210)" text-rendering="geometricPrecision" shape-rendering="geometricPrecision" transform="matrix(1,0,0,1,-117,40) translate(4,4)" stroke="rgb(210,210,210)">
      <rect x="891.1688" width="438.375" height="185.9385" y="-24.1758" clip-path="url(#clipPath3)" stroke="none"/>
    </g>
    <g fill="rgb(242,240,216)" text-rendering="geometricPrecision" shape-rendering="geometricPrecision" transform="matrix(1,0,0,1,-117,40)" stroke="rgb(242,240,216)">
      <rect x="891.1688" width="438.375" height="185.9385" y="-24.1758" clip-path="url(#clipPath2)" stroke="none"/>
      <rect x="891.1688" y="-24.1758" clip-path="url(#clipPath2)" fill="rgb(183,182,158)" width="438.375" height="21.4609" stroke="none"/>
    </g>
    <g font-size="15" stroke-linecap="butt" transform="matrix(1,0,0,1,-117,40)" text-rendering="geometricPrecision" font-family="sans-serif" shape-rendering="geometricPrecision" stroke-miterlimit="1.45">
      <text x="1272.1799" xml:space="preserve" y="-8.2524" clip-path="url(#clipPath2)" stroke="none">Legend</text>
      <rect fill="none" x="891.1688" width="438.375" height="185.9385" y="-24.1758" clip-path="url(#clipPath2)"/>
    </g>
    <g fill="silver" text-rendering="geometricPrecision" shape-rendering="geometricPrecision" transform="matrix(1,0,0,1,-117,40)" stroke="silver">
      <rect x="906.1688" width="136.0406" height="30" y="89.2852" clip-path="url(#clipPath2)" stroke="none"/>
    </g>
    <g text-rendering="geometricPrecision" stroke-miterlimit="1.45" shape-rendering="geometricPrecision" font-family="sans-serif" transform="matrix(1,0,0,1,-117,40)" stroke-linecap="butt">
      <text x="932.0602" xml:space="preserve" y="108.4395" clip-path="url(#clipPath2)" stroke="none">Table Name A</text>
      <rect fill="none" x="906.1688" width="136.0406" height="30" y="89.2852" clip-path="url(#clipPath2)"/>
    </g>
    <g fill="silver" text-rendering="geometricPrecision" shape-rendering="geometricPrecision" transform="matrix(1,0,0,1,-117,40)" stroke="silver">
      <rect x="906.1688" width="136.0406" height="30" y="29.2852" clip-path="url(#clipPath2)" stroke="none"/>
    </g>
    <g text-rendering="geometricPrecision" stroke-miterlimit="1.45" shape-rendering="geometricPrecision" font-family="sans-serif" transform="matrix(1,0,0,1,-117,40)" stroke-linecap="butt">
      <text x="950.4703" xml:space="preserve" y="48.4395" clip-path="url(#clipPath2)" stroke="none">Nth-Join</text>
      <rect fill="none" x="906.1688" width="136.0406" height="30" y="29.2852" clip-path="url(#clipPath2)"/>
    </g>
    <g fill="silver" text-rendering="geometricPrecision" shape-rendering="geometricPrecision" transform="matrix(1,0,0,1,-117,40)" stroke="silver">
      <rect x="906.1688" width="136.0406" height="30" y="59.0352" clip-path="url(#clipPath2)" stroke="none"/>
    </g>
    <g text-rendering="geometricPrecision" stroke-miterlimit="1.45" shape-rendering="geometricPrecision" font-family="sans-serif" transform="matrix(1,0,0,1,-117,40)" stroke-linecap="butt">
      <text x="928.9694" xml:space="preserve" y="78.1895" clip-path="url(#clipPath2)" stroke="none">Name in Query</text>
      <rect fill="none" x="906.1688" width="136.0406" height="30" y="59.0352" clip-path="url(#clipPath2)"/>
    </g>
    <g fill="silver" text-rendering="geometricPrecision" shape-rendering="geometricPrecision" transform="matrix(1,0,0,1,-117,40)" stroke="silver">
      <rect x="1174.3375" width="136.0406" height="30" y="89.2852" clip-path="url(#clipPath2)" stroke="none"/>
    </g>
    <g text-rendering="geometricPrecision" stroke-miterlimit="1.45" shape-rendering="geometricPrecision" font-family="sans-serif" transform="matrix(1,0,0,1,-117,40)" stroke-linecap="butt">
      <text x="1200.2172" xml:space="preserve" y="108.4395" clip-path="url(#clipPath2)" stroke="none">Table Name B</text>
      <rect fill="none" x="1174.3375" width="136.0406" height="30" y="89.2852" clip-path="url(#clipPath2)"/>
    </g>
    <g fill="silver" text-rendering="geometricPrecision" shape-rendering="geometricPrecision" transform="matrix(1,0,0,1,-117,40)" stroke="silver">
      <rect x="1174.3375" width="136.0406" height="30" y="29.2852" clip-path="url(#clipPath2)" stroke="none"/>
    </g>
    <g text-rendering="geometricPrecision" stroke-miterlimit="1.45" shape-rendering="geometricPrecision" font-family="sans-serif" transform="matrix(1,0,0,1,-117,40)" stroke-linecap="butt">
      <text x="1218.639" xml:space="preserve" y="48.4395" clip-path="url(#clipPath2)" stroke="none">Nth-Join</text>
      <rect fill="none" x="1174.3375" width="136.0406" height="30" y="29.2852" clip-path="url(#clipPath2)"/>
    </g>
    <g fill="silver" text-rendering="geometricPrecision" shape-rendering="geometricPrecision" transform="matrix(1,0,0,1,-117,40)" stroke="silver">
      <rect x="1174.3375" width="136.0406" height="30" y="59.0352" clip-path="url(#clipPath2)" stroke="none"/>
    </g>
    <g text-rendering="geometricPrecision" stroke-miterlimit="1.45" shape-rendering="geometricPrecision" font-family="sans-serif" transform="matrix(1,0,0,1,-117,40)" stroke-linecap="butt">
      <text x="1197.1381" xml:space="preserve" y="78.1895" clip-path="url(#clipPath2)" stroke="none">Name in Query</text>
      <rect fill="none" x="1174.3375" width="136.0406" height="30" y="59.0352" clip-path="url(#clipPath2)"/>
      <path fill="none" d="M1174.3375 104.2852 L1050.2094 104.2852" clip-path="url(#clipPath2)"/>
      <path d="M1042.2094 104.2852 L1054.2094 109.2852 L1051.2094 104.2852 L1054.2094 99.2852 Z" clip-path="url(#clipPath2)" stroke="none"/>
      <text x="1052.9971" xml:space="preserve" y="91.4395" clip-path="url(#clipPath2)" stroke="none">Field referencing a</text>
      <path fill="none" d="M1042.2094 44.2852 L1166.3375 44.2852" clip-path="url(#clipPath2)"/>
      <path d="M1174.3375 44.2852 L1162.3375 39.2852 L1165.3375 44.2852 L1162.3375 49.2852 Z" clip-path="url(#clipPath2)" stroke="none"/>
      <text x="1050.8652" xml:space="preserve" y="29.4395" clip-path="url(#clipPath2)" stroke="none">Field referencing b</text>
    </g>
    <g fill="rgb(210,210,210)" text-rendering="geometricPrecision" shape-rendering="geometricPrecision" transform="matrix(1,0,0,1,-117,40) translate(4,4)" stroke="rgb(210,210,210)">
      <rect x="147.5219" width="1234.6469" height="194.9609" y="433.0615" clip-path="url(#clipPath3)" stroke="none"/>
    </g>
    <g fill="rgb(242,240,216)" text-rendering="geometricPrecision" shape-rendering="geometricPrecision" transform="matrix(1,0,0,1,-117,40)" stroke="rgb(242,240,216)">
      <rect x="147.5219" width="1234.6469" height="194.9609" y="433.0615" clip-path="url(#clipPath2)" stroke="none"/>
      <rect x="147.5219" y="433.0615" clip-path="url(#clipPath2)" fill="rgb(183,182,158)" width="1234.6469" height="21.4609" stroke="none"/>
    </g>
    <g font-size="15" stroke-linecap="butt" transform="matrix(1,0,0,1,-117,40)" text-rendering="geometricPrecision" font-family="sans-serif" shape-rendering="geometricPrecision" stroke-miterlimit="1.45">
      <text x="1334.5828" xml:space="preserve" y="448.9849" clip-path="url(#clipPath2)" stroke="none">Query</text>
      <rect fill="none" x="147.5219" width="1234.6469" height="194.9609" y="433.0615" clip-path="url(#clipPath2)"/>
    </g>
    <g fill="rgb(192,218,179)" text-rendering="geometricPrecision" shape-rendering="geometricPrecision" transform="matrix(1,0,0,1,-117,40)" stroke="rgb(192,218,179)">
      <rect x="1018.4594" width="124.8312" height="27" y="544.0225" clip-path="url(#clipPath2)" stroke="none"/>
    </g>
    <g text-rendering="geometricPrecision" stroke-miterlimit="1.45" shape-rendering="geometricPrecision" font-family="sans-serif" transform="matrix(1,0,0,1,-117,40)" stroke-linecap="butt">
      <text x="1025.627" xml:space="preserve" y="561.6768" clip-path="url(#clipPath2)" stroke="none">join ds.dataPeak d</text>
      <rect fill="none" x="1018.4594" width="124.8312" height="27" y="544.0225" clip-path="url(#clipPath2)"/>
    </g>
    <g fill="rgb(124,153,110)" text-rendering="geometricPrecision" shape-rendering="geometricPrecision" transform="matrix(1,0,0,1,-117,40)" stroke="rgb(124,153,110)">
      <rect x="1143.4594" width="89" height="27" y="544.0225" clip-path="url(#clipPath2)" stroke="none"/>
    </g>
    <g text-rendering="geometricPrecision" stroke-miterlimit="1.45" shape-rendering="geometricPrecision" font-family="sans-serif" transform="matrix(1,0,0,1,-117,40)" stroke-linecap="butt">
      <text x="1148.8187" xml:space="preserve" y="561.6768" clip-path="url(#clipPath2)" stroke="none">join d.gene g</text>
      <rect fill="none" x="1143.4594" width="89" height="27" y="544.0225" clip-path="url(#clipPath2)"/>
    </g>
    <g fill="rgb(255,254,107)" text-rendering="geometricPrecision" shape-rendering="geometricPrecision" transform="matrix(1,0,0,1,-117,40)" stroke="rgb(255,254,107)">
      <rect x="898.2094" width="120.25" height="27" y="544.0225" clip-path="url(#clipPath2)" stroke="none"/>
    </g>
    <g text-rendering="geometricPrecision" stroke-miterlimit="1.45" shape-rendering="geometricPrecision" font-family="sans-serif" transform="matrix(1,0,0,1,-117,40)" stroke-linecap="butt">
      <text x="904.0267" xml:space="preserve" y="561.6768" clip-path="url(#clipPath2)" stroke="none"> join s.datasets ds</text>
      <rect fill="none" x="898.2094" width="120.25" height="27" y="544.0225" clip-path="url(#clipPath2)"/>
    </g>
    <g fill="rgb(255,254,107)" text-rendering="geometricPrecision" shape-rendering="geometricPrecision" transform="matrix(1,0,0,1,-117,40)" stroke="rgb(255,254,107)">
      <rect x="777.9594" width="120.25" height="27" y="544.0225" clip-path="url(#clipPath2)" stroke="none"/>
    </g>
    <g text-rendering="geometricPrecision" stroke-miterlimit="1.45" shape-rendering="geometricPrecision" font-family="sans-serif" transform="matrix(1,0,0,1,-117,40)" stroke-linecap="butt">
      <text x="789.6801" xml:space="preserve" y="561.6768" clip-path="url(#clipPath2)" stroke="none">join p.samples s</text>
      <rect fill="none" x="777.9594" width="120.25" height="27" y="544.0225" clip-path="url(#clipPath2)"/>
    </g>
    <g fill="rgb(188,170,255)" text-rendering="geometricPrecision" shape-rendering="geometricPrecision" transform="matrix(1,0,0,1,-117,40)" stroke="rgb(188,170,255)">
      <rect x="544.6688" width="131" height="27" y="544.0225" clip-path="url(#clipPath2)" stroke="none"/>
    </g>
    <g text-rendering="geometricPrecision" stroke-miterlimit="1.45" shape-rendering="geometricPrecision" font-family="sans-serif" transform="matrix(1,0,0,1,-117,40)" stroke-linecap="butt">
      <text x="555.4334" xml:space="preserve" y="561.6768" clip-path="url(#clipPath2)" stroke="none">join p.importinfo ii</text>
      <rect fill="none" x="544.6688" width="131" height="27" y="544.0225" clip-path="url(#clipPath2)"/>
    </g>
    <g fill="rgb(188,170,255)" text-rendering="geometricPrecision" shape-rendering="geometricPrecision" transform="matrix(1,0,0,1,-117,40)" stroke="rgb(188,170,255)">
      <rect x="675.6688" width="102.2906" height="27" y="544.0225" clip-path="url(#clipPath2)" stroke="none"/>
    </g>
    <g text-rendering="geometricPrecision" stroke-miterlimit="1.45" shape-rendering="geometricPrecision" font-family="sans-serif" transform="matrix(1,0,0,1,-117,40)" stroke-linecap="butt">
      <text x="684.4215" xml:space="preserve" y="561.6768" clip-path="url(#clipPath2)" stroke="none">join ii.data cd </text>
      <rect fill="none" x="675.6688" width="102.2906" height="27" y="544.0225" clip-path="url(#clipPath2)"/>
    </g>
    <g fill="rgb(192,218,179)" text-rendering="geometricPrecision" shape-rendering="geometricPrecision" transform="matrix(1,0,0,1,-117,40)" stroke="rgb(192,218,179)">
      <rect x="1018.4594" width="124.8312" height="27" y="517.0225" clip-path="url(#clipPath2)" stroke="none"/>
    </g>
    <g text-rendering="geometricPrecision" stroke-miterlimit="1.45" shape-rendering="geometricPrecision" font-family="sans-serif" transform="matrix(1,0,0,1,-117,40)" stroke-linecap="butt">
      <text x="1073.249" xml:space="preserve" y="534.6768" clip-path="url(#clipPath2)" stroke="none">4b</text>
      <rect fill="none" x="1018.4594" width="124.8312" height="27" y="517.0225" clip-path="url(#clipPath2)"/>
    </g>
    <g fill="rgb(124,153,110)" text-rendering="geometricPrecision" shape-rendering="geometricPrecision" transform="matrix(1,0,0,1,-117,40)" stroke="rgb(124,153,110)">
      <rect x="1143.4594" width="89" height="27" y="517.0225" clip-path="url(#clipPath2)" stroke="none"/>
    </g>
    <g text-rendering="geometricPrecision" stroke-miterlimit="1.45" shape-rendering="geometricPrecision" font-family="sans-serif" transform="matrix(1,0,0,1,-117,40)" stroke-linecap="butt">
      <text x="1180.3334" xml:space="preserve" y="534.6768" clip-path="url(#clipPath2)" stroke="none">5b</text>
      <rect fill="none" x="1143.4594" width="89" height="27" y="517.0225" clip-path="url(#clipPath2)"/>
    </g>
    <g fill="rgb(255,254,107)" text-rendering="geometricPrecision" shape-rendering="geometricPrecision" transform="matrix(1,0,0,1,-117,40)" stroke="rgb(255,254,107)">
      <rect x="898.2094" width="120.25" height="27" y="517.0225" clip-path="url(#clipPath2)" stroke="none"/>
    </g>
    <g text-rendering="geometricPrecision" stroke-miterlimit="1.45" shape-rendering="geometricPrecision" font-family="sans-serif" transform="matrix(1,0,0,1,-117,40)" stroke-linecap="butt">
      <text x="950.7084" xml:space="preserve" y="534.6768" clip-path="url(#clipPath2)" stroke="none">3b</text>
      <rect fill="none" x="898.2094" width="120.25" height="27" y="517.0225" clip-path="url(#clipPath2)"/>
    </g>
    <g fill="rgb(255,254,107)" text-rendering="geometricPrecision" shape-rendering="geometricPrecision" transform="matrix(1,0,0,1,-117,40)" stroke="rgb(255,254,107)">
      <rect x="777.9594" width="120.25" height="27" y="517.0225" clip-path="url(#clipPath2)" stroke="none"/>
    </g>
    <g text-rendering="geometricPrecision" stroke-miterlimit="1.45" shape-rendering="geometricPrecision" font-family="sans-serif" transform="matrix(1,0,0,1,-117,40)" stroke-linecap="butt">
      <text x="830.4584" xml:space="preserve" y="534.6768" clip-path="url(#clipPath2)" stroke="none">2b</text>
      <rect fill="none" x="777.9594" width="120.25" height="27" y="517.0225" clip-path="url(#clipPath2)"/>
    </g>
    <g fill="rgb(188,170,255)" text-rendering="geometricPrecision" shape-rendering="geometricPrecision" transform="matrix(1,0,0,1,-117,40)" stroke="rgb(188,170,255)">
      <rect x="544.6688" width="131" height="27" y="517.0225" clip-path="url(#clipPath2)" stroke="none"/>
    </g>
    <g text-rendering="geometricPrecision" stroke-miterlimit="1.45" shape-rendering="geometricPrecision" font-family="sans-serif" transform="matrix(1,0,0,1,-117,40)" stroke-linecap="butt">
      <text x="602.6746" xml:space="preserve" y="534.6768" clip-path="url(#clipPath2)" stroke="none">2a</text>
      <rect fill="none" x="544.6688" width="131" height="27" y="517.0225" clip-path="url(#clipPath2)"/>
    </g>
    <g fill="rgb(188,170,255)" text-rendering="geometricPrecision" shape-rendering="geometricPrecision" transform="matrix(1,0,0,1,-117,40)" stroke="rgb(188,170,255)">
      <rect x="675.6688" width="102.2906" height="27" y="517.0225" clip-path="url(#clipPath2)" stroke="none"/>
    </g>
    <g text-rendering="geometricPrecision" stroke-miterlimit="1.45" shape-rendering="geometricPrecision" font-family="sans-serif" transform="matrix(1,0,0,1,-117,40)" stroke-linecap="butt">
      <text x="719.3199" xml:space="preserve" y="534.6768" clip-path="url(#clipPath2)" stroke="none">3a</text>
      <rect fill="none" x="675.6688" width="102.2906" height="27" y="517.0225" clip-path="url(#clipPath2)"/>
    </g>
    <g fill="rgb(255,254,107)" text-rendering="geometricPrecision" shape-rendering="geometricPrecision" transform="matrix(1,0,0,1,-117,40)" stroke="rgb(255,254,107)">
      <rect x="288.2719" width="125.3969" height="27" y="544.0225" clip-path="url(#clipPath2)" stroke="none"/>
    </g>
    <g text-rendering="geometricPrecision" stroke-miterlimit="1.45" shape-rendering="geometricPrecision" font-family="sans-serif" transform="matrix(1,0,0,1,-117,40)" stroke-linecap="butt">
      <text x="304.6666" xml:space="preserve" y="561.6768" clip-path="url(#clipPath2)" stroke="none">FROM Patient p</text>
      <rect fill="none" x="288.2719" width="125.3969" height="27" y="544.0225" clip-path="url(#clipPath2)"/>
    </g>
    <g fill="white" text-rendering="geometricPrecision" shape-rendering="geometricPrecision" transform="matrix(1,0,0,1,-117,40)" stroke="white">
      <rect x="1232.4594" width="91.2094" height="27" y="544.0225" clip-path="url(#clipPath2)" stroke="none"/>
    </g>
    <g text-rendering="geometricPrecision" stroke-miterlimit="1.45" shape-rendering="geometricPrecision" font-family="sans-serif" transform="matrix(1,0,0,1,-117,40)" stroke-linecap="butt">
      <text x="1246.3326" xml:space="preserve" y="561.6768" clip-path="url(#clipPath2)" stroke="none">WHERE ....</text>
      <rect fill="none" x="1232.4594" width="91.2094" height="27" y="544.0225" clip-path="url(#clipPath2)"/>
    </g>
    <g fill="rgb(255,254,107)" text-rendering="geometricPrecision" shape-rendering="geometricPrecision" transform="matrix(1,0,0,1,-117,40)" stroke="rgb(255,254,107)">
      <rect x="413.6688" width="131" height="27" y="544.0225" clip-path="url(#clipPath2)" stroke="none"/>
    </g>
    <g text-rendering="geometricPrecision" stroke-miterlimit="1.45" shape-rendering="geometricPrecision" font-family="sans-serif" transform="matrix(1,0,0,1,-117,40)" stroke-linecap="butt">
      <text x="429.1004" xml:space="preserve" y="561.6768" clip-path="url(#clipPath2)" stroke="none">join p.study stud</text>
      <rect fill="none" x="413.6688" width="131" height="27" y="544.0225" clip-path="url(#clipPath2)"/>
    </g>
    <g fill="rgb(255,254,107)" text-rendering="geometricPrecision" shape-rendering="geometricPrecision" transform="matrix(1,0,0,1,-117,40)" stroke="rgb(255,254,107)">
      <rect x="413.6688" width="131" height="27" y="517.0225" clip-path="url(#clipPath2)" stroke="none"/>
    </g>
    <g text-rendering="geometricPrecision" stroke-miterlimit="1.45" shape-rendering="geometricPrecision" font-family="sans-serif" transform="matrix(1,0,0,1,-117,40)" stroke-linecap="butt">
      <text x="475.3514" xml:space="preserve" y="534.6768" clip-path="url(#clipPath2)" stroke="none">1</text>
      <rect fill="none" x="413.6688" width="131" height="27" y="517.0225" clip-path="url(#clipPath2)"/>
    </g>
    <g fill="rgb(255,254,107)" text-rendering="geometricPrecision" shape-rendering="geometricPrecision" transform="matrix(1,0,0,1,-117,40)" stroke="rgb(255,254,107)">
      <rect x="288.2719" width="125.3969" height="27" y="517.0225" clip-path="url(#clipPath2)" stroke="none"/>
    </g>
    <g text-rendering="geometricPrecision" stroke-miterlimit="1.45" shape-rendering="geometricPrecision" font-family="sans-serif" transform="matrix(1,0,0,1,-117,40)" stroke-linecap="butt">
      <text x="347.9703" xml:space="preserve" y="534.6768" clip-path="url(#clipPath2)" stroke="none">*</text>
      <rect fill="none" x="288.2719" width="125.3969" height="27" y="517.0225" clip-path="url(#clipPath2)"/>
    </g>
    <g fill="white" text-rendering="geometricPrecision" shape-rendering="geometricPrecision" transform="matrix(1,0,0,1,-117,40)" stroke="white">
      <rect x="193.0219" width="95.25" height="27" y="544.0225" clip-path="url(#clipPath2)" stroke="none"/>
    </g>
    <g text-rendering="geometricPrecision" stroke-miterlimit="1.45" shape-rendering="geometricPrecision" font-family="sans-serif" transform="matrix(1,0,0,1,-117,40)" stroke-linecap="butt">
      <text x="210.4301" xml:space="preserve" y="561.6768" clip-path="url(#clipPath2)" stroke="none">SELECT ...</text>
      <rect fill="none" x="193.0219" width="95.25" height="27" y="544.0225" clip-path="url(#clipPath2)"/>
    </g>
    <g fill="rgb(255,254,107)" text-rendering="geometricPrecision" shape-rendering="geometricPrecision" transform="matrix(1,0,0,1,-117,40)" stroke="rgb(255,254,107)">
      <rect x="132" width="74" height="27" y="311.9038" clip-path="url(#clipPath2)" stroke="none"/>
    </g>
    <g text-rendering="geometricPrecision" stroke-miterlimit="1.45" shape-rendering="geometricPrecision" font-family="sans-serif" transform="matrix(1,0,0,1,-117,40)" stroke-linecap="butt">
      <text x="165.1826" xml:space="preserve" y="329.5581" clip-path="url(#clipPath2)" stroke="none">1</text>
      <rect fill="none" x="132" width="74" height="27" y="311.9038" clip-path="url(#clipPath2)"/>
    </g>
    <g fill="rgb(255,254,107)" text-rendering="geometricPrecision" shape-rendering="geometricPrecision" transform="matrix(1,0,0,1,-117,40)" stroke="rgb(255,254,107)">
      <rect x="132" width="74" height="27" y="338.9038" clip-path="url(#clipPath2)" stroke="none"/>
    </g>
    <g text-rendering="geometricPrecision" stroke-miterlimit="1.45" shape-rendering="geometricPrecision" font-family="sans-serif" transform="matrix(1,0,0,1,-117,40)" stroke-linecap="butt">
      <text x="165.1914" xml:space="preserve" y="356.5581" clip-path="url(#clipPath2)" stroke="none">p</text>
      <rect fill="none" x="132" width="74" height="27" y="338.9038" clip-path="url(#clipPath2)"/>
      <path fill="none" d="M206 326.0242 L274.0011 327.1645" clip-path="url(#clipPath2)"/>
      <path d="M282 327.2986 L270.0855 322.0981 L273.0013 327.1477 L269.9178 332.0967 Z" clip-path="url(#clipPath2)" stroke="none"/>
      <text x="218.3855" xml:space="preserve" y="316.8344" clip-path="url(#clipPath2)" stroke="none">patients</text>
      <path fill="none" d="M311.5 313.1734 L311.5 151.3164" clip-path="url(#clipPath2)"/>
      <path d="M311.5 143.3164 L306.5 155.3164 L311.5 152.3164 L316.5 155.3164 Z" clip-path="url(#clipPath2)" stroke="none"/>
      <text x="234.208" xml:space="preserve" y="225.3738" clip-path="url(#clipPath2)" stroke="none">importInfos</text>
      <path fill="none" d="M363.5 143.3169 L363.5 307.1466" clip-path="url(#clipPath2)"/>
      <path d="M363.5 315.1466 L368.5 303.1466 L363.5 306.1466 L358.5 303.1466 Z" clip-path="url(#clipPath2)" stroke="none"/>
      <text x="369.1484" xml:space="preserve" y="223.3738" clip-path="url(#clipPath2)" stroke="none">patient</text>
    </g>
  </g>
</svg>
