<?xml version="1.0" encoding="UTF-8"?><svg xmlns="http://www.w3.org/2000/svg" xmlns:xlink="http://www.w3.org/1999/xlink" fill-opacity="1" color-rendering="auto" color-interpolation="auto" text-rendering="auto" stroke="black" stroke-linecap="square" width="1330" stroke-miterlimit="10" shape-rendering="auto" stroke-opacity="1" fill="black" stroke-dasharray="none" font-weight="normal" stroke-width="1" height="704" font-family="'Dialog'" font-style="normal" stroke-linejoin="miter" font-size="12" stroke-dashoffset="0" image-rendering="auto">
  <!--Generated by ySVG 2.5-->
  <defs id="genericDefs"/>
  <g>
    <defs id="defs1">
      <clipPath clipPathUnits="userSpaceOnUse" id="clipPath1">
        <path d="M0 0 L1330 0 L1330 704 L0 704 L0 0 Z"/>
      </clipPath>
      <clipPath clipPathUnits="userSpaceOnUse" id="clipPath2">
        <path d="M137 -77 L1467 -77 L1467 627 L137 627 L137 -77 Z"/>
      </clipPath>
      <clipPath clipPathUnits="userSpaceOnUse" id="clipPath3">
        <path d="M133 -81 L1463 -81 L1463 623 L133 623 L133 -81 Z"/>
      </clipPath>
    </defs>
    <g fill="white" text-rendering="geometricPrecision" shape-rendering="geometricPrecision" transform="translate(-137,77)" stroke="white">
      <rect x="137" width="1330" height="704" y="-77" clip-path="url(#clipPath2)" stroke="none"/>
    </g>
    <g fill="rgb(255,254,107)" text-rendering="geometricPrecision" shape-rendering="geometricPrecision" transform="matrix(1,0,0,1,-137,77)" stroke="rgb(255,254,107)">
      <rect x="651" width="82" height="26" y="367.9038" clip-path="url(#clipPath2)" stroke="none"/>
    </g>
    <g text-rendering="geometricPrecision" stroke-miterlimit="1.45" shape-rendering="geometricPrecision" font-family="sans-serif" transform="matrix(1,0,0,1,-137,77)" stroke-linecap="butt">
      <text x="668.5039" xml:space="preserve" y="385.0581" clip-path="url(#clipPath2)" stroke="none">Dataset</text>
      <rect fill="none" x="651" width="82" height="26" y="367.9038" clip-path="url(#clipPath2)"/>
    </g>
    <g fill="rgb(255,254,107)" text-rendering="geometricPrecision" shape-rendering="geometricPrecision" transform="matrix(1,0,0,1,-137,77)" stroke="rgb(255,254,107)">
      <rect x="451" width="120.25" height="24.5" y="368.6538" clip-path="url(#clipPath2)" stroke="none"/>
    </g>
    <g text-rendering="geometricPrecision" stroke-miterlimit="1.45" shape-rendering="geometricPrecision" font-family="sans-serif" transform="matrix(1,0,0,1,-137,77)" stroke-linecap="butt">
      <text x="488.6279" xml:space="preserve" y="385.0581" clip-path="url(#clipPath2)" stroke="none">Sample</text>
      <rect fill="none" x="451" width="120.25" height="24.5" y="368.6538" clip-path="url(#clipPath2)"/>
    </g>
    <g fill="rgb(255,254,107)" text-rendering="geometricPrecision" shape-rendering="geometricPrecision" transform="matrix(1,0,0,1,-137,77)" stroke="rgb(255,254,107)">
      <rect x="282" width="102" height="24.5" y="365.9038" clip-path="url(#clipPath2)" stroke="none"/>
    </g>
    <g text-rendering="geometricPrecision" stroke-miterlimit="1.45" shape-rendering="geometricPrecision" font-family="sans-serif" transform="matrix(1,0,0,1,-137,77)" stroke-linecap="butt">
      <text x="311.8389" xml:space="preserve" y="382.3081" clip-path="url(#clipPath2)" stroke="none">Patient</text>
      <rect fill="none" x="282" width="102" height="24.5" y="365.9038" clip-path="url(#clipPath2)"/>
    </g>
    <g fill="rgb(255,254,107)" text-rendering="geometricPrecision" shape-rendering="geometricPrecision" transform="matrix(1,0,0,1,-137,77)" stroke="rgb(255,254,107)">
      <rect x="152" width="74" height="24.5" y="365.9038" clip-path="url(#clipPath2)" stroke="none"/>
    </g>
    <g text-rendering="geometricPrecision" stroke-miterlimit="1.45" shape-rendering="geometricPrecision" font-family="sans-serif" transform="matrix(1,0,0,1,-137,77)" stroke-linecap="butt">
      <text x="171.6768" xml:space="preserve" y="382.3081" clip-path="url(#clipPath2)" stroke="none">Study</text>
      <rect fill="none" x="152" width="74" height="24.5" y="365.9038" clip-path="url(#clipPath2)"/>
    </g>
    <g fill="rgb(188,170,255)" text-rendering="geometricPrecision" shape-rendering="geometricPrecision" transform="matrix(1,0,0,1,-137,77)" stroke="rgb(188,170,255)">
      <rect x="282" width="102" height="26" y="125.2852" clip-path="url(#clipPath2)" stroke="none"/>
    </g>
    <g text-rendering="geometricPrecision" stroke-miterlimit="1.45" shape-rendering="geometricPrecision" font-family="sans-serif" transform="matrix(1,0,0,1,-137,77)" stroke-linecap="butt">
      <text x="301.7314" xml:space="preserve" y="142.4395" clip-path="url(#clipPath2)" stroke="none">ImportInfo</text>
      <rect fill="none" x="282" width="102" height="26" y="125.2852" clip-path="url(#clipPath2)"/>
    </g>
    <g fill="rgb(188,170,255)" text-rendering="geometricPrecision" shape-rendering="geometricPrecision" transform="matrix(1,0,0,1,-137,77)" stroke="rgb(188,170,255)">
      <rect x="466" width="330" height="26" y="127.2852" clip-path="url(#clipPath2)" stroke="none"/>
    </g>
    <g text-rendering="geometricPrecision" stroke-miterlimit="1.45" shape-rendering="geometricPrecision" font-family="sans-serif" transform="matrix(1,0,0,1,-137,77)" stroke-linecap="butt">
      <text x="595.0381" xml:space="preserve" y="144.4395" clip-path="url(#clipPath2)" stroke="none">ClinicalData</text>
      <rect fill="none" x="466" width="330" height="26" y="127.2852" clip-path="url(#clipPath2)"/>
    </g>
    <g fill="rgb(102,153,102)" text-rendering="geometricPrecision" shape-rendering="geometricPrecision" transform="matrix(1,0,0,1,-137,77)" stroke="rgb(102,153,102)">
      <rect x="1129.2719" width="214.375" height="30" y="365.9038" clip-path="url(#clipPath2)" stroke="none"/>
    </g>
    <g text-rendering="geometricPrecision" stroke-miterlimit="1.45" shape-rendering="geometricPrecision" font-family="sans-serif" transform="matrix(1,0,0,1,-137,77)" stroke-linecap="butt">
      <text x="1220.6244" xml:space="preserve" y="385.0581" clip-path="url(#clipPath2)" stroke="none">Gene</text>
      <rect fill="none" x="1129.2719" width="214.375" height="30" y="365.9038" clip-path="url(#clipPath2)"/>
    </g>
    <g fill="rgb(192,218,179)" text-rendering="geometricPrecision" shape-rendering="geometricPrecision" transform="matrix(1,0,0,1,-137,77)" stroke="rgb(192,218,179)">
      <rect x="840.5219" width="214.375" height="30" y="365.9038" clip-path="url(#clipPath2)" stroke="none"/>
    </g>
    <g text-rendering="geometricPrecision" stroke-miterlimit="1.45" shape-rendering="geometricPrecision" font-family="sans-serif" transform="matrix(1,0,0,1,-137,77)" stroke-linecap="butt">
      <text x="933.3832" xml:space="preserve" y="385.0581" clip-path="url(#clipPath2)" stroke="none">Data</text>
      <rect fill="none" x="840.5219" width="214.375" height="30" y="365.9038" clip-path="url(#clipPath2)"/>
    </g>
    <g fill="rgb(192,218,179)" text-rendering="geometricPrecision" shape-rendering="geometricPrecision" transform="matrix(1,0,0,1,-137,77)" stroke="rgb(192,218,179)">
      <rect x="840.5219" width="214.375" height="30" y="305.6538" clip-path="url(#clipPath2)" stroke="none"/>
    </g>
    <g text-rendering="geometricPrecision" stroke-miterlimit="1.45" shape-rendering="geometricPrecision" font-family="sans-serif" transform="matrix(1,0,0,1,-137,77)" stroke-linecap="butt">
      <text x="943.892" xml:space="preserve" y="324.8081" clip-path="url(#clipPath2)" stroke="none">1</text>
      <rect fill="none" x="840.5219" width="214.375" height="30" y="305.6538" clip-path="url(#clipPath2)"/>
    </g>
    <g fill="rgb(102,153,102)" text-rendering="geometricPrecision" shape-rendering="geometricPrecision" transform="matrix(1,0,0,1,-137,77)" stroke="rgb(102,153,102)">
      <rect x="1129.2719" width="214.375" height="30" y="305.9038" clip-path="url(#clipPath2)" stroke="none"/>
    </g>
    <g text-rendering="geometricPrecision" stroke-miterlimit="1.45" shape-rendering="geometricPrecision" font-family="sans-serif" transform="matrix(1,0,0,1,-137,77)" stroke-linecap="butt">
      <text x="1232.642" xml:space="preserve" y="325.0581" clip-path="url(#clipPath2)" stroke="none">2</text>
      <rect fill="none" x="1129.2719" width="214.375" height="30" y="305.9038" clip-path="url(#clipPath2)"/>
    </g>
    <g fill="rgb(255,254,107)" text-rendering="geometricPrecision" shape-rendering="geometricPrecision" transform="matrix(1,0,0,1,-137,77)" stroke="rgb(255,254,107)">
      <rect x="651" width="82" height="28.5" y="313.9038" clip-path="url(#clipPath2)" stroke="none"/>
    </g>
    <g text-rendering="geometricPrecision" stroke-miterlimit="1.45" shape-rendering="geometricPrecision" font-family="sans-serif" transform="matrix(1,0,0,1,-137,77)" stroke-linecap="butt">
      <text x="688.1826" xml:space="preserve" y="332.3081" clip-path="url(#clipPath2)" stroke="none">3</text>
      <rect fill="none" x="651" width="82" height="28.5" y="313.9038" clip-path="url(#clipPath2)"/>
    </g>
    <g fill="rgb(255,254,107)" text-rendering="geometricPrecision" shape-rendering="geometricPrecision" transform="matrix(1,0,0,1,-137,77)" stroke="rgb(255,254,107)">
      <rect x="451" width="120.25" height="27" y="314.6538" clip-path="url(#clipPath2)" stroke="none"/>
    </g>
    <g text-rendering="geometricPrecision" stroke-miterlimit="1.45" shape-rendering="geometricPrecision" font-family="sans-serif" transform="matrix(1,0,0,1,-137,77)" stroke-linecap="butt">
      <text x="507.3076" xml:space="preserve" y="332.3081" clip-path="url(#clipPath2)" stroke="none">5</text>
      <rect fill="none" x="451" width="120.25" height="27" y="314.6538" clip-path="url(#clipPath2)"/>
    </g>
    <g fill="rgb(188,170,255)" text-rendering="geometricPrecision" shape-rendering="geometricPrecision" transform="matrix(1,0,0,1,-137,77)" stroke="rgb(188,170,255)">
      <rect x="282" width="102" height="26" y="73.2852" clip-path="url(#clipPath2)" stroke="none"/>
    </g>
    <g text-rendering="geometricPrecision" stroke-miterlimit="1.45" shape-rendering="geometricPrecision" font-family="sans-serif" transform="matrix(1,0,0,1,-137,77)" stroke-linecap="butt">
      <text x="329.1826" xml:space="preserve" y="90.4395" clip-path="url(#clipPath2)" stroke="none">7</text>
      <rect fill="none" x="282" width="102" height="26" y="73.2852" clip-path="url(#clipPath2)"/>
    </g>
    <g fill="rgb(188,170,255)" text-rendering="geometricPrecision" shape-rendering="geometricPrecision" transform="matrix(1,0,0,1,-137,77)" stroke="rgb(188,170,255)">
      <rect x="466" width="330" height="30" y="67.2852" clip-path="url(#clipPath2)" stroke="none"/>
    </g>
    <g text-rendering="geometricPrecision" stroke-miterlimit="1.45" shape-rendering="geometricPrecision" font-family="sans-serif" transform="matrix(1,0,0,1,-137,77)" stroke-linecap="butt">
      <text x="627.1826" xml:space="preserve" y="86.4395" clip-path="url(#clipPath2)" stroke="none">8</text>
      <rect fill="none" x="466" width="330" height="30" y="67.2852" clip-path="url(#clipPath2)"/>
    </g>
    <g fill="rgb(255,254,107)" text-rendering="geometricPrecision" shape-rendering="geometricPrecision" transform="matrix(1,0,0,1,-137,77)" stroke="rgb(255,254,107)">
      <rect x="282" width="102" height="27" y="314.6538" clip-path="url(#clipPath2)" stroke="none"/>
    </g>
    <g text-rendering="geometricPrecision" stroke-miterlimit="1.45" shape-rendering="geometricPrecision" font-family="sans-serif" transform="matrix(1,0,0,1,-137,77)" stroke-linecap="butt">
      <text x="329.1826" xml:space="preserve" y="332.3081" clip-path="url(#clipPath2)" stroke="none">6</text>
      <rect fill="none" x="282" width="102" height="27" y="314.6538" clip-path="url(#clipPath2)"/>
    </g>
    <g fill="rgb(255,254,107)" text-rendering="geometricPrecision" shape-rendering="geometricPrecision" transform="matrix(1,0,0,1,-137,77)" stroke="rgb(255,254,107)">
      <rect x="282" width="102" height="27" y="341.6538" clip-path="url(#clipPath2)" stroke="none"/>
    </g>
    <g text-rendering="geometricPrecision" stroke-miterlimit="1.45" shape-rendering="geometricPrecision" font-family="sans-serif" transform="matrix(1,0,0,1,-137,77)" stroke-linecap="butt">
      <text x="329.1914" xml:space="preserve" y="359.3081" clip-path="url(#clipPath2)" stroke="none">p</text>
      <rect fill="none" x="282" width="102" height="27" y="341.6538" clip-path="url(#clipPath2)"/>
    </g>
    <g fill="rgb(255,254,107)" text-rendering="geometricPrecision" shape-rendering="geometricPrecision" transform="matrix(1,0,0,1,-137,77)" stroke="rgb(255,254,107)">
      <rect x="451" width="120.25" height="27" y="341.6538" clip-path="url(#clipPath2)" stroke="none"/>
    </g>
    <g text-rendering="geometricPrecision" stroke-miterlimit="1.45" shape-rendering="geometricPrecision" font-family="sans-serif" transform="matrix(1,0,0,1,-137,77)" stroke-linecap="butt">
      <text x="507.999" xml:space="preserve" y="359.3081" clip-path="url(#clipPath2)" stroke="none">s</text>
      <rect fill="none" x="451" width="120.25" height="27" y="341.6538" clip-path="url(#clipPath2)"/>
    </g>
    <g fill="rgb(255,254,107)" text-rendering="geometricPrecision" shape-rendering="geometricPrecision" transform="matrix(1,0,0,1,-137,77)" stroke="rgb(255,254,107)">
      <rect x="651" width="82" height="28.5" y="340.1538" clip-path="url(#clipPath2)" stroke="none"/>
    </g>
    <g text-rendering="geometricPrecision" stroke-miterlimit="1.45" shape-rendering="geometricPrecision" font-family="sans-serif" transform="matrix(1,0,0,1,-137,77)" stroke-linecap="butt">
      <text x="685.0654" xml:space="preserve" y="358.5581" clip-path="url(#clipPath2)" stroke="none">ds</text>
      <rect fill="none" x="651" width="82" height="28.5" y="340.1538" clip-path="url(#clipPath2)"/>
    </g>
    <g fill="rgb(192,218,179)" text-rendering="geometricPrecision" shape-rendering="geometricPrecision" transform="matrix(1,0,0,1,-137,77)" stroke="rgb(192,218,179)">
      <rect x="840.5219" width="214.375" height="30" y="335.6538" clip-path="url(#clipPath2)" stroke="none"/>
    </g>
    <g text-rendering="geometricPrecision" stroke-miterlimit="1.45" shape-rendering="geometricPrecision" font-family="sans-serif" transform="matrix(1,0,0,1,-137,77)" stroke-linecap="butt">
      <text x="943.9008" xml:space="preserve" y="354.8081" clip-path="url(#clipPath2)" stroke="none">d</text>
      <rect fill="none" x="840.5219" width="214.375" height="30" y="335.6538" clip-path="url(#clipPath2)"/>
    </g>
    <g fill="rgb(102,153,102)" text-rendering="geometricPrecision" shape-rendering="geometricPrecision" transform="matrix(1,0,0,1,-137,77)" stroke="rgb(102,153,102)">
      <rect x="1129.2719" width="214.375" height="30" y="335.6538" clip-path="url(#clipPath2)" stroke="none"/>
    </g>
    <g text-rendering="geometricPrecision" stroke-miterlimit="1.45" shape-rendering="geometricPrecision" font-family="sans-serif" transform="matrix(1,0,0,1,-137,77)" stroke-linecap="butt">
      <text x="1232.6508" xml:space="preserve" y="354.8081" clip-path="url(#clipPath2)" stroke="none">g</text>
      <rect fill="none" x="1129.2719" width="214.375" height="30" y="335.6538" clip-path="url(#clipPath2)"/>
    </g>
    <g fill="rgb(188,170,255)" text-rendering="geometricPrecision" shape-rendering="geometricPrecision" transform="matrix(1,0,0,1,-137,77)" stroke="rgb(188,170,255)">
      <rect x="282" width="102" height="26" y="99.2852" clip-path="url(#clipPath2)" stroke="none"/>
    </g>
    <g text-rendering="geometricPrecision" stroke-miterlimit="1.45" shape-rendering="geometricPrecision" font-family="sans-serif" transform="matrix(1,0,0,1,-137,77)" stroke-linecap="butt">
      <text x="329.666" xml:space="preserve" y="116.4395" clip-path="url(#clipPath2)" stroke="none">ii</text>
      <rect fill="none" x="282" width="102" height="26" y="99.2852" clip-path="url(#clipPath2)"/>
    </g>
    <g fill="rgb(188,170,255)" text-rendering="geometricPrecision" shape-rendering="geometricPrecision" transform="matrix(1,0,0,1,-137,77)" stroke="rgb(188,170,255)">
      <rect x="466" width="330" height="30" y="97.2852" clip-path="url(#clipPath2)" stroke="none"/>
    </g>
    <g text-rendering="geometricPrecision" stroke-miterlimit="1.45" shape-rendering="geometricPrecision" font-family="sans-serif" transform="matrix(1,0,0,1,-137,77)" stroke-linecap="butt">
      <text x="623.8926" xml:space="preserve" y="116.4395" clip-path="url(#clipPath2)" stroke="none">cd</text>
      <rect fill="none" x="466" width="330" height="30" y="97.2852" clip-path="url(#clipPath2)"/>
      <path fill="none" d="M579.25 380.9038 L643 380.9038" clip-path="url(#clipPath2)"/>
      <path d="M571.25 380.9038 L583.25 385.9038 L580.25 380.9038 L583.25 375.9038 Z" clip-path="url(#clipPath2)" stroke="none"/>
      <path d="M651 380.9038 L639 375.9038 L642 380.9038 L639 385.9038 Z" clip-path="url(#clipPath2)" stroke="none"/>
      <path fill="none" d="M391.9991 379.0647 L443.0009 379.8521" clip-path="url(#clipPath2)"/>
      <path d="M384 378.9412 L395.9214 384.1258 L392.9989 379.0801 L396.0758 374.127 Z" clip-path="url(#clipPath2)" stroke="none"/>
      <path d="M451 379.9756 L439.0786 374.791 L442.0011 379.8366 L438.9243 384.7897 Z" clip-path="url(#clipPath2)" stroke="none"/>
      <path fill="none" d="M234 378.1538 L274 378.1538" clip-path="url(#clipPath2)"/>
      <path d="M226 378.1538 L238 383.1538 L235 378.1538 L238 373.1538 Z" clip-path="url(#clipPath2)" stroke="none"/>
      <path d="M282 378.1538 L270 373.1538 L273 378.1538 L270 383.1538 Z" clip-path="url(#clipPath2)" stroke="none"/>
      <path fill="none" d="M391.9998 138.6811 L458.0002 139.1241" clip-path="url(#clipPath2)"/>
      <path d="M384 138.6274 L395.9662 143.7079 L392.9998 138.6878 L396.0333 133.7081 Z" clip-path="url(#clipPath2)" stroke="none"/>
      <path d="M466 139.1778 L454.0338 134.0974 L457.0002 139.1174 L453.9667 144.0971 Z" clip-path="url(#clipPath2)" stroke="none"/>
      <path fill="none" d="M840.5219 380.9038 L741 380.9038" clip-path="url(#clipPath2)"/>
      <path d="M733 380.9038 L745 385.9038 L742 380.9038 L745 375.9038 Z" clip-path="url(#clipPath2)" stroke="none"/>
      <path fill="none" d="M1054.8969 380.9038 L1121.2719 380.9038" clip-path="url(#clipPath2)"/>
      <path d="M1129.2719 380.9038 L1117.2719 375.9038 L1120.2719 380.9038 L1117.2719 385.9038 Z" clip-path="url(#clipPath2)" stroke="none"/>
      <path fill="none" d="M963.7601 305.6323 L965.7709 303.7505 L983.8304 289.103 L1001.8881 276.7114 L1019.9437 266.5757 L1037.9974 258.6958 L1056.0492 253.0718 L1074.099 249.7036 L1092.1469 248.5913 L1110.1927 249.7349 L1128.2367 253.1343 L1146.2787 258.7896 L1164.3187 266.7007 L1182.3568 276.8677 L1200.3929 289.2905 L1214.4298 300.7157 L1214.5027 300.7841" clip-path="url(#clipPath2)"/>
      <path d="M1220.5809 305.9856 L1214.7146 294.3845 L1213.7429 300.1339 L1208.2126 301.9822 Z" clip-path="url(#clipPath2)" stroke="none"/>
      <text x="1063.7595" xml:space="preserve" y="225.9012" clip-path="url(#clipPath2)" stroke="none">gene</text>
      <path fill="none" d="M932.1168 305.6368 L931.2488 304.8008 L914.8521 291.124 L898.5192 279.6234 L882.2501 270.2991 L866.0449 263.1511 L849.9034 258.1792 L833.8259 255.3836 L817.8121 254.7642 L801.8622 256.3211 L785.9761 260.0542 L770.1539 265.9636 L754.3954 274.0491 L738.7008 284.3109 L723.0701 296.749 L710.8183 308.251 L710.7505 308.3245" clip-path="url(#clipPath2)"/>
      <path d="M705.0867 313.9744 L717.1136 309.0394 L711.4584 307.6182 L710.0512 301.9597 Z" clip-path="url(#clipPath2)" stroke="none"/>
      <text x="808.6988" xml:space="preserve" y="232.1637" clip-path="url(#clipPath2)" stroke="none">dataset</text>
      <path fill="none" d="M681.5513 313.9038 L680.6953 312.7363 L669.3906 299.3745 L658.0859 288.0684 L646.7812 278.8179 L635.4766 271.623 L624.1719 266.4839 L612.8672 263.4004 L601.5625 262.3726 L590.2578 263.4004 L578.9531 266.4839 L567.6484 271.623 L556.3438 278.8179 L545.0391 288.0684 L533.7344 299.3745 L526.08 308.4217 L526.0209 308.5024" clip-path="url(#clipPath2)"/>
      <path d="M520.9757 314.7109 L532.4238 308.5514 L526.6516 307.7263 L524.6631 302.2449 Z" clip-path="url(#clipPath2)" stroke="none"/>
      <text x="594.2687" xml:space="preserve" y="242.2659" clip-path="url(#clipPath2)" stroke="none">samples</text>
      <path fill="none" d="M346.4697 73.3133 L351.3906 68.5742 L369.8125 53.1914 L388.2656 40.1367 L406.75 29.4102 L425.2656 21.0117 L443.8125 14.9414 L462.3906 11.1992 L481 9.7852 L499.6406 10.6992 L518.3125 13.9414 L537.0156 19.5117 L555.75 27.4102 L574.5156 37.6367 L593.3125 50.1914 L608.4037 62.1203 L608.4775 62.1877" clip-path="url(#clipPath2)"/>
      <path d="M614.6115 67.3233 L608.6203 55.7862 L607.7108 61.5458 L602.2008 63.4537 Z" clip-path="url(#clipPath2)" stroke="none"/>
      <text x="465.6982" xml:space="preserve" y="0.6939" clip-path="url(#clipPath2)" stroke="none">infos</text>
      <path fill="none" d="M499.9705 314.6618 L488.8594 303.0112 L477.7266 293.1338 L466.5938 285.0522 L455.4609 278.7666 L444.3281 274.2769 L433.1953 271.583 L422.0625 270.6851 L410.9297 271.583 L399.7969 274.2769 L388.6641 278.7666 L377.5312 285.0522 L366.3984 293.1338 L355.2656 303.0112 L349.6758 308.8725" clip-path="url(#clipPath2)"/>
      <path d="M344.1545 314.6618 L356.0547 309.4286 L350.3659 308.1488 L348.8181 302.5271 Z" clip-path="url(#clipPath2)" stroke="none"/>
      <text x="416.9766" xml:space="preserve" y="249.6316" clip-path="url(#clipPath2)" stroke="none">patient</text>
      <path fill="none" d="M333 306.6538 L333 159.2852" clip-path="url(#clipPath2)"/>
      <path d="M333 314.6538 L338 302.6538 L333 305.6538 L328 302.6538 Z" clip-path="url(#clipPath2)" stroke="none"/>
      <path d="M333 151.2852 L328 163.2852 L333 160.2852 L338 163.2852 Z" clip-path="url(#clipPath2)" stroke="none"/>
      <path fill="none" d="M320.5378 314.6414 L312.2331 304.4202 L304.0747 292.5534 L297.3996 280.6866 L292.2079 268.8199 L288.4995 256.9531 L286.2745 245.0863 L285.5328 233.2195 L286.2745 221.3527 L288.4995 209.4859 L292.2079 197.6191 L297.3996 185.7523 L304.0747 173.8855 L312.2331 162.0187 L315.9074 157.4966" clip-path="url(#clipPath2)"/>
      <path d="M320.9521 151.2876 L309.5045 157.4481 L315.2768 158.2727 L317.2656 163.754 Z" clip-path="url(#clipPath2)" stroke="none"/>
      <path fill="none" d="M320.5378 314.6414 L312.2331 304.4202 L304.0747 292.5534 L297.3996 280.6866 L292.2079 268.8199 L288.4995 256.9531 L286.2745 245.0863 L285.5328 233.2195 L286.2745 221.3527 L288.4995 209.4859 L292.2079 197.6191 L297.3996 185.7523 L304.0747 173.8855 L312.2331 162.0187 L315.9074 157.4966" clip-path="url(#clipPath2)"/>
      <path d="M320.9521 151.2876 L309.5045 157.4481 L315.2768 158.2727 L317.2656 163.754 Z" clip-path="url(#clipPath2)" stroke="none"/>
      <text x="204.2903" xml:space="preserve" y="231.3905" clip-path="url(#clipPath2)" stroke="none">importInfos</text>
    </g>
    <g fill="rgb(210,210,210)" text-rendering="geometricPrecision" shape-rendering="geometricPrecision" transform="matrix(1,0,0,1,-137,77) translate(4,4)" stroke="rgb(210,210,210)">
      <rect x="1063.5438" width="244.375" height="233.9385" y="-61.6533" clip-path="url(#clipPath3)" stroke="none"/>
    </g>
    <g fill="rgb(242,240,216)" text-rendering="geometricPrecision" shape-rendering="geometricPrecision" transform="matrix(1,0,0,1,-137,77)" stroke="rgb(242,240,216)">
      <rect x="1063.5438" width="244.375" height="233.9385" y="-61.6533" clip-path="url(#clipPath2)" stroke="none"/>
      <rect x="1063.5438" y="-61.6533" clip-path="url(#clipPath2)" fill="rgb(183,182,158)" width="244.375" height="21.4609" stroke="none"/>
    </g>
    <g font-size="15" stroke-linecap="butt" transform="matrix(1,0,0,1,-137,77)" text-rendering="geometricPrecision" font-family="sans-serif" shape-rendering="geometricPrecision" stroke-miterlimit="1.45">
      <text x="1250.5549" xml:space="preserve" y="-45.73" clip-path="url(#clipPath2)" stroke="none">Legend</text>
      <rect fill="none" x="1063.5438" width="244.375" height="233.9385" y="-61.6533" clip-path="url(#clipPath2)"/>
    </g>
    <g fill="silver" text-rendering="geometricPrecision" shape-rendering="geometricPrecision" transform="matrix(1,0,0,1,-137,77)" stroke="silver">
      <rect x="1078.5438" width="214.375" height="30" y="34.8076" clip-path="url(#clipPath2)" stroke="none"/>
    </g>
    <g text-rendering="geometricPrecision" stroke-miterlimit="1.45" shape-rendering="geometricPrecision" font-family="sans-serif" transform="matrix(1,0,0,1,-137,77)" stroke-linecap="butt">
      <text x="1149.614" xml:space="preserve" y="53.9619" clip-path="url(#clipPath2)" stroke="none">Table Name</text>
      <rect fill="none" x="1078.5438" width="214.375" height="30" y="34.8076" clip-path="url(#clipPath2)"/>
    </g>
    <g fill="silver" text-rendering="geometricPrecision" shape-rendering="geometricPrecision" transform="matrix(1,0,0,1,-137,77)" stroke="silver">
      <rect x="1078.5438" width="214.375" height="30" y="-25.1924" clip-path="url(#clipPath2)" stroke="none"/>
    </g>
    <g text-rendering="geometricPrecision" stroke-miterlimit="1.45" shape-rendering="geometricPrecision" font-family="sans-serif" transform="matrix(1,0,0,1,-137,77)" stroke-linecap="butt">
      <text x="1162.0125" xml:space="preserve" y="-6.0381" clip-path="url(#clipPath2)" stroke="none">Nth-Join</text>
      <rect fill="none" x="1078.5438" width="214.375" height="30" y="-25.1924" clip-path="url(#clipPath2)"/>
    </g>
    <g fill="silver" text-rendering="geometricPrecision" shape-rendering="geometricPrecision" transform="matrix(1,0,0,1,-137,77)" stroke="silver">
      <rect x="1078.5438" width="214.375" height="30" y="4.5576" clip-path="url(#clipPath2)" stroke="none"/>
    </g>
    <g text-rendering="geometricPrecision" stroke-miterlimit="1.45" shape-rendering="geometricPrecision" font-family="sans-serif" transform="matrix(1,0,0,1,-137,77)" stroke-linecap="butt">
      <text x="1140.5115" xml:space="preserve" y="23.7119" clip-path="url(#clipPath2)" stroke="none">Name in Query</text>
      <rect fill="none" x="1078.5438" width="214.375" height="30" y="4.5576" clip-path="url(#clipPath2)"/>
    </g>
    <g fill="silver" text-rendering="geometricPrecision" shape-rendering="geometricPrecision" transform="matrix(1,0,0,1,-137,77)" stroke="silver">
      <rect x="1096.8312" width="51" height="30" y="127.2852" clip-path="url(#clipPath2)" stroke="none"/>
    </g>
    <g text-rendering="geometricPrecision" stroke-miterlimit="1.45" shape-rendering="geometricPrecision" font-family="sans-serif" transform="matrix(1,0,0,1,-137,77)" stroke-linecap="butt">
      <text x="1118.2268" xml:space="preserve" y="146.4395" clip-path="url(#clipPath2)" stroke="none">A</text>
      <rect fill="none" x="1096.8312" width="51" height="30" y="127.2852" clip-path="url(#clipPath2)"/>
    </g>
    <g fill="silver" text-rendering="geometricPrecision" shape-rendering="geometricPrecision" transform="matrix(1,0,0,1,-137,77)" stroke="silver">
      <rect x="1241.9188" width="51" height="30" y="127.2852" clip-path="url(#clipPath2)" stroke="none"/>
    </g>
    <g text-rendering="geometricPrecision" stroke-miterlimit="1.45" shape-rendering="geometricPrecision" font-family="sans-serif" transform="matrix(1,0,0,1,-137,77)" stroke-linecap="butt">
      <text x="1263.3025" xml:space="preserve" y="146.4395" clip-path="url(#clipPath2)" stroke="none">B</text>
      <rect fill="none" x="1241.9188" width="51" height="30" y="127.2852" clip-path="url(#clipPath2)"/>
      <path fill="none" d="M1139.4401 127.315 L1140.4673 126.4162 L1158.6031 115.0813 L1167.6711 111.114 L1176.739 108.2803 L1185.807 106.5801 L1194.875 106.0133 L1203.943 106.5801 L1213.011 108.2803 L1222.0789 111.114 L1231.1469 115.0813 L1243.6439 122.8919 L1243.7192 122.9578" clip-path="url(#clipPath2)"/>
      <path d="M1250.3927 127.3697 L1243.14 116.5809 L1242.8851 122.4063 L1237.6251 124.9227 Z" clip-path="url(#clipPath2)" stroke="none"/>
      <text x="1141.5547" xml:space="preserve" y="94.1676" clip-path="url(#clipPath2)" stroke="none">Name of Join-field</text>
    </g>
    <g fill="rgb(210,210,210)" text-rendering="geometricPrecision" shape-rendering="geometricPrecision" transform="matrix(1,0,0,1,-137,77) translate(4,4)" stroke="rgb(210,210,210)">
      <rect x="177" width="1270.3969" height="174.4609" y="433.0615" clip-path="url(#clipPath3)" stroke="none"/>
    </g>
    <g fill="rgb(242,240,216)" text-rendering="geometricPrecision" shape-rendering="geometricPrecision" transform="matrix(1,0,0,1,-137,77)" stroke="rgb(242,240,216)">
      <rect x="177" width="1270.3969" height="174.4609" y="433.0615" clip-path="url(#clipPath2)" stroke="none"/>
      <rect x="177" y="433.0615" clip-path="url(#clipPath2)" fill="rgb(183,182,158)" width="1270.3969" height="21.4609" stroke="none"/>
    </g>
    <g font-size="15" stroke-linecap="butt" transform="matrix(1,0,0,1,-137,77)" text-rendering="geometricPrecision" font-family="sans-serif" shape-rendering="geometricPrecision" stroke-miterlimit="1.45">
      <text x="1399.8109" xml:space="preserve" y="448.9849" clip-path="url(#clipPath2)" stroke="none">Query</text>
      <rect fill="none" x="177" width="1270.3969" height="174.4609" y="433.0615" clip-path="url(#clipPath2)"/>
    </g>
    <g fill="rgb(192,218,179)" text-rendering="geometricPrecision" shape-rendering="geometricPrecision" transform="matrix(1,0,0,1,-137,77)" stroke="rgb(192,218,179)">
      <rect x="373.8969" width="89" height="27" y="532.0225" clip-path="url(#clipPath2)" stroke="none"/>
    </g>
    <g text-rendering="geometricPrecision" stroke-miterlimit="1.45" shape-rendering="geometricPrecision" font-family="sans-serif" transform="matrix(1,0,0,1,-137,77)" stroke-linecap="butt">
      <text x="378.9281" xml:space="preserve" y="549.6768" clip-path="url(#clipPath2)" stroke="none">FROM Data d</text>
      <rect fill="none" x="373.8969" width="89" height="27" y="532.0225" clip-path="url(#clipPath2)"/>
    </g>
    <g fill="rgb(124,153,110)" text-rendering="geometricPrecision" shape-rendering="geometricPrecision" transform="matrix(1,0,0,1,-137,77)" stroke="rgb(124,153,110)">
      <rect x="462.8969" width="89" height="27" y="532.0225" clip-path="url(#clipPath2)" stroke="none"/>
    </g>
    <g text-rendering="geometricPrecision" stroke-miterlimit="1.45" shape-rendering="geometricPrecision" font-family="sans-serif" transform="matrix(1,0,0,1,-137,77)" stroke-linecap="butt">
      <text x="468.2563" xml:space="preserve" y="549.6768" clip-path="url(#clipPath2)" stroke="none">join d.gene g</text>
      <rect fill="none" x="462.8969" width="89" height="27" y="532.0225" clip-path="url(#clipPath2)"/>
    </g>
    <g fill="rgb(255,254,107)" text-rendering="geometricPrecision" shape-rendering="geometricPrecision" transform="matrix(1,0,0,1,-137,77)" stroke="rgb(255,254,107)">
      <rect x="551.8969" width="110" height="27" y="532.0225" clip-path="url(#clipPath2)" stroke="none"/>
    </g>
    <g text-rendering="geometricPrecision" stroke-miterlimit="1.45" shape-rendering="geometricPrecision" font-family="sans-serif" transform="matrix(1,0,0,1,-137,77)" stroke-linecap="butt">
      <text x="555.0326" xml:space="preserve" y="549.6768" clip-path="url(#clipPath2)" stroke="none"> join d.dataset ds</text>
      <rect fill="none" x="551.8969" width="110" height="27" y="532.0225" clip-path="url(#clipPath2)"/>
    </g>
    <g fill="rgb(255,254,107)" text-rendering="geometricPrecision" shape-rendering="geometricPrecision" transform="matrix(1,0,0,1,-137,77)" stroke="rgb(255,254,107)">
      <rect x="661.8969" width="131" height="27" y="532.0225" clip-path="url(#clipPath2)" stroke="none"/>
    </g>
    <g text-rendering="geometricPrecision" stroke-miterlimit="1.45" shape-rendering="geometricPrecision" font-family="sans-serif" transform="matrix(1,0,0,1,-137,77)" stroke-linecap="butt">
      <text x="675.8666" xml:space="preserve" y="549.6768" clip-path="url(#clipPath2)" stroke="none">join ds.samples s</text>
      <rect fill="none" x="661.8969" width="131" height="27" y="532.0225" clip-path="url(#clipPath2)"/>
    </g>
    <g fill="rgb(255,254,107)" text-rendering="geometricPrecision" shape-rendering="geometricPrecision" transform="matrix(1,0,0,1,-137,77)" stroke="rgb(255,254,107)">
      <rect x="792.8969" width="131" height="27" y="532.0225" clip-path="url(#clipPath2)" stroke="none"/>
    </g>
    <g text-rendering="geometricPrecision" stroke-miterlimit="1.45" shape-rendering="geometricPrecision" font-family="sans-serif" transform="matrix(1,0,0,1,-137,77)" stroke-linecap="butt">
      <text x="813.5814" xml:space="preserve" y="549.6768" clip-path="url(#clipPath2)" stroke="none">join s.patient p</text>
      <rect fill="none" x="792.8969" width="131" height="27" y="532.0225" clip-path="url(#clipPath2)"/>
    </g>
    <g fill="rgb(188,170,255)" text-rendering="geometricPrecision" shape-rendering="geometricPrecision" transform="matrix(1,0,0,1,-137,77)" stroke="rgb(188,170,255)">
      <rect x="923.8969" width="131" height="27" y="532.0225" clip-path="url(#clipPath2)" stroke="none"/>
    </g>
    <g text-rendering="geometricPrecision" stroke-miterlimit="1.45" shape-rendering="geometricPrecision" font-family="sans-serif" transform="matrix(1,0,0,1,-137,77)" stroke-linecap="butt">
      <text x="934.6615" xml:space="preserve" y="549.6768" clip-path="url(#clipPath2)" stroke="none">join p.importinfo ii</text>
      <rect fill="none" x="923.8969" width="131" height="27" y="532.0225" clip-path="url(#clipPath2)"/>
    </g>
    <g fill="rgb(188,170,255)" text-rendering="geometricPrecision" shape-rendering="geometricPrecision" transform="matrix(1,0,0,1,-137,77)" stroke="rgb(188,170,255)">
      <rect x="1054.8969" width="131" height="27" y="532.0225" clip-path="url(#clipPath2)" stroke="none"/>
    </g>
    <g text-rendering="geometricPrecision" stroke-miterlimit="1.45" shape-rendering="geometricPrecision" font-family="sans-serif" transform="matrix(1,0,0,1,-137,77)" stroke-linecap="butt">
      <text x="1078.0043" xml:space="preserve" y="549.6768" clip-path="url(#clipPath2)" stroke="none">join ii.data cd </text>
      <rect fill="none" x="1054.8969" width="131" height="27" y="532.0225" clip-path="url(#clipPath2)"/>
    </g>
    <g fill="rgb(192,218,179)" text-rendering="geometricPrecision" shape-rendering="geometricPrecision" transform="matrix(1,0,0,1,-137,77)" stroke="rgb(192,218,179)">
      <rect x="373.8969" width="89" height="27" y="505.0225" clip-path="url(#clipPath2)" stroke="none"/>
    </g>
    <g text-rendering="geometricPrecision" stroke-miterlimit="1.45" shape-rendering="geometricPrecision" font-family="sans-serif" transform="matrix(1,0,0,1,-137,77)" stroke-linecap="butt">
      <text x="414.5795" xml:space="preserve" y="522.6768" clip-path="url(#clipPath2)" stroke="none">1</text>
      <rect fill="none" x="373.8969" width="89" height="27" y="505.0225" clip-path="url(#clipPath2)"/>
    </g>
    <g fill="rgb(124,153,110)" text-rendering="geometricPrecision" shape-rendering="geometricPrecision" transform="matrix(1,0,0,1,-137,77)" stroke="rgb(124,153,110)">
      <rect x="462.8969" width="89" height="27" y="505.0225" clip-path="url(#clipPath2)" stroke="none"/>
    </g>
    <g text-rendering="geometricPrecision" stroke-miterlimit="1.45" shape-rendering="geometricPrecision" font-family="sans-serif" transform="matrix(1,0,0,1,-137,77)" stroke-linecap="butt">
      <text x="503.5795" xml:space="preserve" y="522.6768" clip-path="url(#clipPath2)" stroke="none">2</text>
      <rect fill="none" x="462.8969" width="89" height="27" y="505.0225" clip-path="url(#clipPath2)"/>
    </g>
    <g fill="rgb(255,254,107)" text-rendering="geometricPrecision" shape-rendering="geometricPrecision" transform="matrix(1,0,0,1,-137,77)" stroke="rgb(255,254,107)">
      <rect x="551.8969" width="110" height="27" y="505.0225" clip-path="url(#clipPath2)" stroke="none"/>
    </g>
    <g text-rendering="geometricPrecision" stroke-miterlimit="1.45" shape-rendering="geometricPrecision" font-family="sans-serif" transform="matrix(1,0,0,1,-137,77)" stroke-linecap="butt">
      <text x="603.0795" xml:space="preserve" y="522.6768" clip-path="url(#clipPath2)" stroke="none">3</text>
      <rect fill="none" x="551.8969" width="110" height="27" y="505.0225" clip-path="url(#clipPath2)"/>
    </g>
    <g fill="rgb(255,254,107)" text-rendering="geometricPrecision" shape-rendering="geometricPrecision" transform="matrix(1,0,0,1,-137,77)" stroke="rgb(255,254,107)">
      <rect x="661.8969" width="131" height="27" y="505.0225" clip-path="url(#clipPath2)" stroke="none"/>
    </g>
    <g text-rendering="geometricPrecision" stroke-miterlimit="1.45" shape-rendering="geometricPrecision" font-family="sans-serif" transform="matrix(1,0,0,1,-137,77)" stroke-linecap="butt">
      <text x="723.5795" xml:space="preserve" y="522.6768" clip-path="url(#clipPath2)" stroke="none">4</text>
      <rect fill="none" x="661.8969" width="131" height="27" y="505.0225" clip-path="url(#clipPath2)"/>
    </g>
    <g fill="rgb(255,254,107)" text-rendering="geometricPrecision" shape-rendering="geometricPrecision" transform="matrix(1,0,0,1,-137,77)" stroke="rgb(255,254,107)">
      <rect x="792.8969" width="131" height="27" y="505.0225" clip-path="url(#clipPath2)" stroke="none"/>
    </g>
    <g text-rendering="geometricPrecision" stroke-miterlimit="1.45" shape-rendering="geometricPrecision" font-family="sans-serif" transform="matrix(1,0,0,1,-137,77)" stroke-linecap="butt">
      <text x="854.5795" xml:space="preserve" y="522.6768" clip-path="url(#clipPath2)" stroke="none">5</text>
      <rect fill="none" x="792.8969" width="131" height="27" y="505.0225" clip-path="url(#clipPath2)"/>
    </g>
    <g fill="rgb(188,170,255)" text-rendering="geometricPrecision" shape-rendering="geometricPrecision" transform="matrix(1,0,0,1,-137,77)" stroke="rgb(188,170,255)">
      <rect x="923.8969" width="131" height="27" y="505.0225" clip-path="url(#clipPath2)" stroke="none"/>
    </g>
    <g text-rendering="geometricPrecision" stroke-miterlimit="1.45" shape-rendering="geometricPrecision" font-family="sans-serif" transform="matrix(1,0,0,1,-137,77)" stroke-linecap="butt">
      <text x="985.5795" xml:space="preserve" y="522.6768" clip-path="url(#clipPath2)" stroke="none">6</text>
      <rect fill="none" x="923.8969" width="131" height="27" y="505.0225" clip-path="url(#clipPath2)"/>
    </g>
    <g fill="rgb(188,170,255)" text-rendering="geometricPrecision" shape-rendering="geometricPrecision" transform="matrix(1,0,0,1,-137,77)" stroke="rgb(188,170,255)">
      <rect x="1054.8969" width="131" height="27" y="505.0225" clip-path="url(#clipPath2)" stroke="none"/>
    </g>
    <g text-rendering="geometricPrecision" stroke-miterlimit="1.45" shape-rendering="geometricPrecision" font-family="sans-serif" transform="matrix(1,0,0,1,-137,77)" stroke-linecap="butt">
      <text x="1116.5795" xml:space="preserve" y="522.6768" clip-path="url(#clipPath2)" stroke="none">7</text>
      <rect fill="none" x="1054.8969" width="131" height="27" y="505.0225" clip-path="url(#clipPath2)"/>
    </g>
    <g fill="white" text-rendering="geometricPrecision" shape-rendering="geometricPrecision" transform="matrix(1,0,0,1,-137,77)" stroke="white">
      <rect x="197.5" width="176.3969" height="27" y="532.0225" clip-path="url(#clipPath2)" stroke="none"/>
    </g>
    <g text-rendering="geometricPrecision" stroke-miterlimit="1.45" shape-rendering="geometricPrecision" font-family="sans-serif" transform="matrix(1,0,0,1,-137,77)" stroke-linecap="butt">
      <text x="251.6672" xml:space="preserve" y="549.6768" clip-path="url(#clipPath2)" stroke="none">SELECT .....</text>
      <rect fill="none" x="197.5" width="176.3969" height="27" y="532.0225" clip-path="url(#clipPath2)"/>
    </g>
    <g fill="white" text-rendering="geometricPrecision" shape-rendering="geometricPrecision" transform="matrix(1,0,0,1,-137,77)" stroke="white">
      <rect x="1185.8969" width="176.3969" height="27" y="532.0225" clip-path="url(#clipPath2)" stroke="none"/>
    </g>
    <g text-rendering="geometricPrecision" stroke-miterlimit="1.45" shape-rendering="geometricPrecision" font-family="sans-serif" transform="matrix(1,0,0,1,-137,77)" stroke-linecap="butt">
      <text x="1242.3639" xml:space="preserve" y="549.6768" clip-path="url(#clipPath2)" stroke="none">WHERE ....</text>
      <rect fill="none" x="1185.8969" width="176.3969" height="27" y="532.0225" clip-path="url(#clipPath2)"/>
    </g>
  </g>
</svg>
